<svg xmlns="http://www.w3.org/2000/svg" width="301" height="402" viewBox="0 0 301 402" fill="none"><path d="M70.4799 223.13C71.7799 217.53 73.4399 211.96 75.7399 206.6C80.0299 196.57 85.6699 187.399 93.8899 180.119C100.35 174.399 108 170.48 115.89 167.11C117.85 166.27 117.88 164.77 117.97 163.25C118.06 161.63 116.58 161.55 115.47 161.27C110.44 159.99 107.77 154.31 109.95 149.51C110.8 147.64 112.15 146.13 113.41 144.56C115.83 141.56 115.74 140.05 113.06 137.36C107.66 131.94 106.77 126.57 111.44 120.46C116.58 113.74 119.7 106.26 122.47 98.41C125.64 89.43 132.88 84.9499 141.81 83.0199C146.67 81.9699 151.6 81.6899 156.53 82.8499C159.37 83.5199 161.92 84.6799 163.94 86.8499C164.17 87.0999 164.42 87.4101 164.72 87.5101C172.24 89.9001 175 96.1399 177.16 102.85C177.59 104.17 177.94 105.52 178.23 106.88C179.21 111.55 181.15 115.68 184.63 119.06C185.71 120.11 186.61 121.41 187.37 122.73C189.24 125.93 189.51 129.27 187.26 132.36C185.33 135.01 185.72 137.24 187.52 139.75C191.2 144.87 190.72 148.24 185.96 152.45C185.28 153.05 184.6 153.66 183.88 154.19C180.37 156.78 179.09 160.15 180.09 164.45C180.35 165.56 180.65 166.04 181.85 166.3C192.69 168.59 202.87 172.46 211.01 180.27C217.96 186.94 223.11 194.97 227.26 203.64C230.28 209.94 232.46 216.52 234.03 223.6C237.63 219.58 241.1 215.71 244.57 211.84C247.51 208.58 250.46 205.33 253.4 202.07C256.91 198.17 259.97 193.969 262.08 189.119C262.38 188.419 262.66 187.6 263.21 187.15C265.4 185.35 265.2 183.14 264.88 180.64C263.71 171.43 268.34 165.08 275.48 160.15C277.41 158.82 279.67 158.19 282.03 159.11C282.76 159.4 283.07 159.2 283.57 158.67C285.65 156.47 287.75 156.09 290.56 157.32C293.35 158.54 295.45 160.57 296.71 163.32C301.3 173.29 300.35 182.66 293.34 191.23C292.31 192.49 291.77 193.64 292.17 195.3C292.56 196.95 292.14 198.62 291.72 200.24C288 214.51 284.16 228.74 277.88 242.16C276.56 244.98 275.08 247.73 273.63 250.61C277.73 251.72 281.63 253.11 285.26 255.19C297.75 262.37 303.23 275.31 299.42 289.92C294.72 307.96 283.8 321.73 268.85 332.44C258.3 340 246.35 344.83 234.37 349.51C225.12 353.12 215.81 356.57 206.34 360.16C209.33 362.4 212.12 364.68 214.7 367.22C216.16 368.65 217.53 370.13 217.91 372.23C218.37 374.75 216.96 376.92 213.75 378.6C214.99 380.48 217.38 382.01 215.97 384.77C214.86 386.93 212.92 387.47 210.42 387.01C211.25 388.91 212.45 390.58 211.26 392.56C210.16 394.39 208.64 395.4 206.47 395.27C206.67 399.6 203.89 401.84 199.66 400.82C196.55 400.07 193.97 398.27 191.33 396.59C187.8 394.34 184.5 391.77 181.22 389.18C175.44 384.61 169.07 381.1 162.19 378.49C159.98 377.65 157.77 376.82 155.79 375.48C154.69 374.74 153.36 375.13 152.13 375.06C148.86 374.86 145.8 375.09 142.77 376.9C139.76 378.7 136.24 379.629 133.03 381.119C126.28 384.249 120.55 388.94 114.63 393.35C111.5 395.68 108.28 397.879 104.76 399.579C103.83 400.029 102.85 400.42 101.85 400.7C97.4999 401.92 94.7299 399.77 94.8499 395.32C90.0399 394.84 88.5699 391.919 90.8599 387.119C88.4699 387.339 86.3199 386.96 85.2599 384.57C84.0999 381.95 86.2299 380.49 87.4899 378.81C87.5599 378.33 87.1799 378.37 86.9799 378.27C83.0199 376.26 82.1499 372.32 85.0399 368.93C87.3499 366.22 90.0999 363.95 92.8999 361.75C93.5499 361.24 94.2199 360.74 95.0799 360.07C87.0899 357.06 79.2999 354.13 71.5099 351.19C59.5399 346.67 47.5699 342.11 36.6999 335.22C21.3699 325.5 9.92993 312.44 3.45993 295.35C0.56993 287.72 -0.5401 279.779 2.1799 271.829C5.8299 261.139 13.8399 255.04 24.2199 251.63C26.1899 250.98 28.2299 250.54 30.4699 249.93C29.7499 248.54 29.0699 247.23 28.3899 245.9C21.7499 232.8 17.4399 218.87 13.8099 204.71C13.0699 201.82 11.7299 198.93 12.2399 195.94C12.6199 193.66 11.8999 192.249 10.5799 190.579C4.20992 182.519 3.32989 173.65 7.22989 164.26C8.70989 160.71 11.1999 158.06 14.9999 156.9C17.2899 156.2 19.2499 156.8 20.8699 158.57C21.1899 158.92 21.1999 159.58 22.0799 159.21C24.9799 157.99 27.5699 159.01 29.8899 160.73C37.3699 166.29 41.2499 173.44 39.2599 182.98C39.0099 184.18 39.2299 184.89 40.1099 185.66C41.1699 186.58 41.8299 187.84 42.3599 189.13C44.1599 193.5 46.8799 197.27 49.9999 200.77C56.4899 208.05 62.9999 215.32 69.4999 222.59C69.7199 222.84 69.8799 223.19 70.4899 223.11L70.4799 223.13ZM148.71 176.56C145.7 176.04 142.61 176.12 139.66 175.23C135.71 174.04 134.72 172.71 134.74 168.63C134.74 168.02 134.97 167.38 134.61 166.79C134.54 166.78 134.47 166.75 134.41 166.76C132.97 167 131.54 167.29 130.1 167.5C113.3 169.96 99.4499 177.92 88.5799 190.74C80.0299 200.82 75.5999 212.99 72.8899 225.82C72.7699 226.39 72.8499 226.89 73.1699 227.4C75.1699 230.58 76.0699 234.16 76.7999 237.78C77.0499 239 77.1099 240.26 77.1999 241.51C77.2299 241.84 77.0799 242.26 76.6499 242.23C76.4499 242.21 76.1799 241.93 76.0999 241.72C75.9299 241.27 75.9099 240.77 75.7599 240.3C74.2499 235.44 72.5699 230.6 69.1899 226.7C64.2699 221.01 59.0399 215.59 54.0999 209.92C48.8499 203.9 43.0599 198.26 39.8699 190.71C39.4499 189.72 39.0399 188.69 38.1399 188.05C37.9499 188.16 37.8599 188.18 37.8399 188.23C35.5899 193.04 32.9199 197.46 27.4599 199.22C26.5799 199.5 26.9299 199.99 27.0899 200.5C29.8899 209.81 32.4199 219.22 37.2699 227.76C36.2999 228.12 36.2099 227.19 35.8799 226.73C34.6099 224.96 33.7599 222.98 33.0399 220.93C30.7799 214.5 28.4699 208.08 26.7799 201.46C26.4299 200.08 25.9299 199.52 24.3999 199.74C22.3299 200.04 20.4299 199.34 18.6899 198.17C17.5399 197.39 16.2999 196.749 14.7899 195.869C15.0199 197.189 15.1099 198.23 15.3699 199.22C16.7999 204.67 18.1999 210.13 19.7399 215.55C22.8999 226.68 26.6199 237.6 31.7899 247.99C32.4099 249.25 33.0999 249.74 34.5299 249.47C37.6299 248.9 40.7799 249.03 43.9199 248.99C44.3899 248.99 45.0199 249.33 45.4099 248.63C41.3999 244.38 38.7199 239.54 38.9299 233.51C38.9899 231.77 38.9699 230.1 38.0599 228.55C39.8599 229.26 39.9399 230.74 39.7899 232.35C39.2199 238.48 41.5699 243.48 45.7299 247.81C46.6199 248.74 47.5699 249.08 48.8299 249.17C51.8799 249.4 54.9399 249.72 57.9699 250.16C65.6399 251.26 73.0699 253.38 80.4699 255.59C81.9399 256.03 82.8599 256.019 83.9399 254.619C89.0699 247.999 93.7299 241.08 97.8799 233.8C98.3699 232.94 98.4499 232.19 98.0999 231.24C96.9599 228.18 95.9199 225.08 94.8499 222C94.6499 221.42 94.2099 220.71 94.9799 220.34C95.9299 219.88 96.0999 220.79 96.3899 221.4C101.62 232.31 104.9 243.56 103.14 255.9C102.34 261.49 105.24 265.79 110.46 267.99C113.19 269.14 116.05 269.73 118.97 269.97C135.08 271.3 151.2 272.41 167.38 271.74C175.46 271.4 183.53 270.84 191.37 268.72C199.17 266.6 201.67 262.5 200.69 254.44C200.14 249.95 199.78 245.44 200.34 240.89C201.33 232.95 204.17 225.52 206.43 217.93C206.7 217.01 207.29 216.49 208.3 216.74C209.39 217.01 209.48 217.85 209.23 218.72C208.68 220.59 208.29 222.56 207.41 224.27C204.71 229.55 205.66 234.36 208.58 239.21C211.86 244.64 214.84 250.259 220.17 254.079C221.27 254.869 222.27 255.09 223.64 254.69C232.82 252.04 242.12 249.97 251.66 249.16C254.07 248.95 255.41 247.39 255.27 244.92C255.23 244.23 255.49 244.1 256.01 243.95C258.76 243.18 260.46 241.17 261.85 238.86C269.09 226.79 275.64 214.37 281.27 201.46C281.8 200.25 281.78 199.84 280.25 199.74C276.77 199.51 273.79 198.33 271.31 195.52C269.27 193.2 267.78 190.65 266.36 187.82C265.42 188.77 264.94 189.76 264.51 190.79C262.96 194.49 260.83 197.83 258.18 200.82C250.47 209.54 242.72 218.21 234.98 226.91C234.38 227.58 233.87 228.43 232.76 228.11C231.64 227.78 231.69 226.73 231.53 225.89C229.83 217.01 226.8 208.61 222.59 200.61C215.11 186.39 203.87 176.54 188.58 171.5C180.89 168.97 172.88 167.78 164.95 166.29C163.88 166.09 163.52 166.32 163.59 167.54C163.9 172.91 163.11 173.84 157.92 175.19C155.08 175.93 152.16 176.1 149.29 176.57C149.1 176.57 148.92 176.569 148.73 176.579L148.71 176.56ZM133.9 339.21C130.93 338.44 128.04 337.42 125.35 335.94C112.01 328.59 98.8399 320.93 86.0199 312.69C81.3799 309.71 77.1599 306.17 73.5399 301.97C71.5399 299.64 69.6899 297.19 68.3799 294.4C67.1399 291.76 67.6299 290.3 70.1999 288.98C70.7999 288.67 70.7399 288.36 70.7999 287.88C71.3199 283.9 74.0999 281.45 78.1199 281.29C80.4499 281.2 82.6999 281.55 84.8899 282.31C92.5899 284.95 99.4699 289.15 106.21 293.6C113.82 298.63 121.55 303.43 130.14 306.68C137.62 309.5 145.29 311.409 153.31 311.619C161.05 311.819 168.28 309.599 175.32 306.619C188.24 301.169 200.36 294.26 212.2 286.79C216.67 283.97 221.36 281.51 226.57 280.27C229.47 279.58 232.35 279.35 235.11 280.85C239.9 283.46 240.25 288.99 235.78 292C234.44 292.91 233.04 293.78 232.36 295.29C229.9 300.81 225.35 304.18 220.37 307.11C198.24 320.11 175.28 331.569 152.64 343.619C147.82 346.179 142.99 348.71 138.05 351.31C141.02 354.42 143.45 357.64 145.3 361.26C146.76 364.12 148.29 367.07 148.13 370.32C148.01 372.62 148.9 372.79 150.63 372.48C150.97 372.42 151.32 372.42 151.67 372.39C163.24 371.29 174.42 368.44 185.4 364.76C201.61 359.33 217.38 352.72 233.39 346.75C244.41 342.64 255.26 338.1 265.07 331.5C279.29 321.94 289.82 309.35 295.6 293.1C298.13 286 298.96 278.66 296.05 271.44C292.29 262.12 284.78 256.99 275.56 254.15C263.43 250.41 251.17 251.29 238.98 253.82C226.77 256.36 215.07 260.71 203.1 264.14C201.86 264.49 201.33 265.4 201.15 266.57C199.85 275.07 194.47 280.04 186.86 283.05C180.39 285.62 173.57 286.04 166.74 286.09C149.59 286.21 133.55 282.03 118.7 273.39C117.85 272.9 116.98 272.6 115.99 272.41C112.28 271.72 108.41 270.96 105.7 268.24C103.09 265.61 99.9799 264.56 96.6399 263.63C93.3599 262.72 90.1299 261.609 86.8799 260.579C73.9999 256.499 61.0899 252.57 47.4699 251.84C37.3099 251.29 27.3899 252.24 18.2899 257.21C8.97989 262.3 3.43992 269.94 3.56992 280.91C3.67991 290.55 7.4199 299.029 12.3699 307.079C21.6499 322.139 35.0799 332.28 50.8799 339.63C65.8399 346.6 81.5199 351.71 96.8099 357.84C97.7499 358.22 98.3799 357.86 99.0999 357.41C107.22 352.34 116 349 125.43 347.36C126.28 347.21 126.95 346.9 127.54 346.2C129.6 343.79 132.09 341.919 134.99 340.579C135.33 340.419 136.24 340.469 135.91 339.829C135.47 338.979 135.88 339.049 136.41 339.119C140.44 339.619 143.4 336.83 147.12 335.99C146.82 335.59 146.76 335.45 146.66 335.38C132.82 326.53 118.96 317.72 105.16 308.82C98.0899 304.26 90.8399 299.93 84.3899 294.46C83.9099 294.05 82.8799 293.71 83.3599 292.9C83.8399 292.1 84.6099 292.809 85.1999 293.079C88.7999 294.759 92.2399 296.74 95.5599 298.9C111.61 309.33 127.62 319.82 143.7 330.21C150.87 334.84 150.89 334.7 157.99 330.05C175.23 318.77 192.5 307.54 209.76 296.28C211.92 294.87 214.16 293.6 216.59 292.73C217.05 292.56 217.63 292.33 217.95 292.78C218.26 293.22 217.88 293.69 217.54 294.06C215.97 295.77 214.15 297.17 212.22 298.42C199.96 306.38 187.7 314.33 175.42 322.26C163.04 330.26 150.8 338.509 136.46 342.829C134.44 343.439 132.7 344.74 131.21 346.41C132.24 346.73 133.78 345.849 133.9 347.119C134.05 348.719 135.27 348.72 136.02 349.46C137.19 350.62 138.04 350.32 139.24 349.68C152.21 342.83 165.21 336.05 178.17 329.19C192.85 321.42 207.64 313.819 221.81 305.119C224.72 303.329 227.63 301.43 229.4 298.39C231.17 295.35 233.17 292.66 236.1 290.55C238.82 288.6 238.79 285.57 236.52 283.09C235.29 281.75 233.75 281.03 231.96 280.82C228.3 280.37 224.93 281.4 221.63 282.8C216.88 284.82 212.46 287.47 208.13 290.24C197.26 297.19 185.82 303.01 173.92 307.97C164.77 311.79 155.44 313.32 145.56 311.61C132.64 309.38 121.01 304.21 110.13 297.07C103.39 292.65 96.7399 288.04 89.2699 284.86C85.7499 283.36 82.1999 281.93 78.2499 282.04C73.9999 282.16 71.5699 284.67 71.7899 288.9C71.8299 289.59 71.6799 289.65 71.0799 289.77C68.6899 290.24 68.0699 291.33 68.9699 293.57C69.3999 294.66 70.0099 295.69 70.6399 296.68C75.1899 303.86 81.6399 309.04 88.7199 313.46C96.3299 318.21 104.06 322.77 111.81 327.29C118.7 331.31 125.3 335.93 133.06 338.29C133.37 338.39 133.58 338.84 133.83 339.13L133.91 339.16L133.9 339.21ZM145.8 369.9C145.68 369.41 145.53 368.66 145.3 367.93C143.33 361.58 139.98 356.03 135.63 351.05C134.26 349.48 134.01 349.36 131.93 349.54C119.77 350.57 108.58 354.38 98.4099 361.15C94.2299 363.93 90.2499 366.99 86.9199 370.77C85.5399 372.34 85.7399 374.37 87.1799 375.39C88.7799 376.53 90.1899 376.05 91.3799 374.63C91.5599 374.42 91.7399 374.2 91.9199 374C92.3699 373.5 92.8899 373.16 93.5599 373.54C94.2999 373.96 94.3399 374.669 94.1099 375.369C93.8199 376.249 93.1199 376.85 92.4599 377.48C91.1499 378.73 89.8399 379.98 88.6199 381.31C87.9999 381.99 87.1499 382.73 87.8199 383.85C88.4999 384.97 89.6099 384.9 90.6099 384.6C91.8599 384.22 93.0199 383.54 94.2599 383.1C95.2099 382.76 96.3199 381.6 97.1799 383.01C97.9099 384.22 96.6799 384.85 95.9599 385.55C94.9599 386.52 93.8799 387.4 92.9299 388.42C92.0999 389.32 91.4999 390.45 92.2699 391.64C93.0699 392.89 94.3799 393.15 95.7799 392.86C97.5699 392.49 98.8499 391.28 100.1 390.06C100.73 389.45 101.42 388.77 102.24 389.46C103.17 390.26 102.57 391.16 101.9 391.79C100.79 392.84 99.5499 393.75 98.4399 394.8C97.7699 395.43 96.7599 396.09 97.4299 397.23C98.0699 398.32 99.1899 398.56 100.35 398.34C101.72 398.08 102.97 397.45 104.2 396.79C108.51 394.49 112.48 391.669 116.28 388.619C123.28 382.999 130.91 378.53 139.42 375.6C141 375.06 142.5 374.33 143.92 373.45C145.14 372.7 145.79 371.62 145.78 369.9H145.8ZM158.46 95.5599C155.65 98.8899 152.98 101.61 150.01 104.05C145.2 108 139.63 110.5 133.9 112.69C129.71 114.29 127.51 116.9 128.07 121.73C128.71 127.25 128.64 132.85 130.97 138.07C134.81 146.68 143.99 152.61 152.25 151.11C160.93 149.53 165.98 143.63 168.56 135.52C170.14 130.55 169.91 125.34 170.03 120.18C170.08 118.11 169.48 116.54 168.04 115.17C162.57 109.94 159.23 103.63 158.46 95.5501V95.5599ZM158.93 374.06C159.34 374.42 159.43 374.54 159.55 374.59C160.51 375 161.45 375.46 162.43 375.8C170.82 378.68 178.25 383.23 185.15 388.74C188.57 391.47 192.11 394.07 195.99 396.16C197.64 397.05 199.28 397.99 201.13 398.42C202.35 398.7 203.38 398.31 203.94 397.17C204.46 396.11 203.57 395.51 202.93 394.91C201.82 393.86 200.42 393.14 199.46 391.91C198.9 391.2 198.1 390.42 198.95 389.56C199.83 388.67 200.56 389.45 201.23 390.11C202.23 391.08 203.25 392.06 204.57 392.57C206.17 393.2 207.83 393.27 208.92 391.73C210.01 390.2 208.92 388.95 207.88 387.89C206.81 386.8 205.61 385.84 204.5 384.78C203.98 384.28 203.63 383.66 204.09 382.91C204.58 382.1 205.3 382.34 205.94 382.6C207.16 383.1 208.32 383.74 209.55 384.22C210.85 384.73 212.39 385.35 213.35 383.91C214.31 382.47 212.86 381.53 212.02 380.61C210.56 379.03 208.98 377.56 207.52 375.98C206.84 375.24 206.71 374.3 207.64 373.61C208.48 372.99 209.04 373.64 209.57 374.22C209.85 374.53 210.14 374.83 210.43 375.13C211.46 376.18 212.67 376.25 213.86 375.56C215.06 374.87 215.5 373.719 215.18 372.329C214.88 371.039 214.05 370.08 213.12 369.26C210.25 366.72 207.37 364.2 204.22 362C203.47 361.48 202.85 361.32 201.95 361.66C188.05 366.92 174.01 371.69 158.94 374.04L158.93 374.06ZM278.51 170.68C277.28 169.52 278.15 168.77 278.86 167.96C279.88 166.82 280.96 165.7 281.55 164.27C281.92 163.37 282.22 162.33 281.48 161.49C280.69 160.59 279.65 161.03 278.75 161.34C272.96 163.35 267.39 171.01 267.44 177.11C267.49 183.4 269.21 188.979 273.66 193.829C276.55 196.969 279.6 197.88 283.31 196.61C284.6 196.16 286.25 196.79 287.16 195.59C289.43 192.6 291.78 189.66 293.64 186.38C297.6 179.42 297.71 172.21 294.79 164.9C293.72 162.22 291.84 160.199 288.93 159.369C287.8 159.049 286.54 158.94 285.88 159.98C285.08 161.23 286.39 161.81 287.18 162.4C289.63 164.24 290.99 166.6 290.83 169.72C290.78 170.68 290.87 171.77 289.86 172.31C288.71 172.92 288.09 171.86 287.38 171.28C286 170.17 284.59 169.139 282.67 169.619C282 169.789 281.27 170.02 281.06 170.79C280.84 171.58 281.4 172.09 281.95 172.52C282.77 173.16 283.7 173.67 284.45 174.38C285.14 175.05 285.39 176.029 284.81 176.869C284.13 177.849 283.18 177.48 282.42 176.93C281.35 176.16 280.39 175.22 279.3 174.49C278.24 173.78 276.97 172.61 275.78 173.71C274.63 174.78 275.83 176.02 276.39 177.09C276.81 177.88 277.49 178.58 277.44 179.54C277.39 180.69 276.6 181.31 275.56 181.43C274.97 181.5 274.34 180.81 274.61 180.34C275.53 178.78 274.3 177.92 273.71 176.84C272.39 174.42 273.09 172 275.33 171.05C276.27 170.65 277.25 170.92 278.49 170.68H278.51ZM7.5499 175.03C7.5999 175.66 7.64988 176.42 7.71988 177.18C8.21988 182.99 11.2999 187.589 14.6099 192.119C16.2399 194.339 17.6799 196.43 20.8799 196.74C23.8399 197.02 26.6599 197.68 29.1699 195.45C32.7499 192.26 35.0799 188.35 36.2299 183.68C37.7799 177.42 37.1299 171.67 32.6599 166.71C30.7499 164.58 28.7699 162.52 26.0399 161.41C24.9399 160.96 23.8299 160.919 22.9599 161.869C22.1099 162.789 22.7799 163.7 23.0999 164.59C23.1199 164.65 23.1899 164.7 23.2099 164.77C23.8899 166.88 26.8599 167.79 26.2799 170.59C26.2799 170.61 26.7399 170.75 26.9899 170.79C31.4899 171.42 32.6199 173.88 30.1599 177.67C29.6899 178.39 28.9499 179.04 29.6899 180.06C29.9099 180.37 29.8499 180.89 29.4799 181.2C29.0499 181.56 28.5499 181.49 28.1099 181.23C27.0599 180.61 26.6999 179.69 27.1999 178.57C27.5399 177.81 28.0299 177.13 28.4199 176.39C28.8799 175.52 29.4299 174.52 28.6199 173.69C27.7699 172.82 26.7199 173.45 25.9499 173.95C24.5599 174.86 23.2999 175.97 21.9499 176.95C21.2299 177.47 20.4299 177.73 19.6799 177C18.9099 176.25 19.2899 175.46 19.6799 174.7C20.2199 173.64 21.2699 173.19 22.2199 172.61C22.8899 172.2 23.5799 171.69 23.3499 170.81C23.1299 170 22.3399 169.729 21.5699 169.579C20.4899 169.359 19.4699 169.55 18.5799 170.17C17.7799 170.72 17.0599 171.38 16.2799 171.96C14.9799 172.92 14.0599 172.59 13.7699 170.99C13.2599 168.15 13.7799 165.58 16.0099 163.55C16.7799 162.85 17.5999 162.2 18.3499 161.47C19.2699 160.57 18.9899 159.89 17.8799 159.43C17.1399 159.13 16.4099 159.129 15.6399 159.329C12.6799 160.079 10.8899 162.12 9.68991 164.75C8.22991 167.96 7.72993 171.39 7.58993 175.03H7.5499ZM254.57 249.04C260.06 248.92 265.32 249.02 270.52 249.99C271.44 250.16 271.75 249.65 272.06 248.98C273.42 246.09 274.9 243.24 276.16 240.31C281.96 226.77 285.54 212.53 289.33 198.36C289.54 197.58 289.77 196.78 289.33 195.76C288.14 197.09 286.64 197.89 285.16 198.4C282.86 199.2 282.11 200.94 281.28 202.88C275.96 215.38 269.71 227.4 262.58 238.96C261.14 241.29 259.58 243.51 256.83 244.49C256.48 244.61 256.14 244.72 256.24 245.17C256.59 246.74 255.4 247.69 254.56 249.04H254.57ZM160.48 150.57C159.74 151.25 159.44 151.51 159.16 151.79C153.22 157.65 146.45 162.37 138.88 165.84C136.76 166.81 137.34 168.32 137.23 169.77C137.12 171.26 138.09 172.02 139.4 172.43C146.13 174.51 152.82 174.31 159.47 172.06C160.77 171.62 161.38 170.83 161.2 169.4C160.96 167.47 160.79 165.53 160.63 163.59C160.28 159.45 160.28 155.299 160.49 150.579L160.48 150.57ZM98.6999 233.55C94.2899 241.89 89.1799 249.26 83.4799 256.41C86.0599 257.2 88.3899 257.879 90.6899 258.619C91.7299 258.949 92.4899 258.75 93.3099 257.98C95.7399 255.68 97.9699 253.19 100.08 250.6C100.43 250.16 100.76 249.74 100.81 249.14C101.24 243.96 100.56 238.93 98.7099 233.55H98.6999ZM220.66 255.53C212.72 249.59 208.64 241.36 204.86 232.53C203.95 236.05 203.43 239.25 202.84 242.45C202.05 246.68 203.09 250.09 206.24 252.95C207.01 253.65 207.74 254.42 208.35 255.26C210.2 257.81 212.36 258.67 215.38 257.14C216.9 256.37 218.68 256.12 220.67 255.54L220.66 255.53ZM126.3 122.369C126.22 121.069 126.41 119.53 124.93 119.39C123.31 119.24 122.56 120.58 122.41 122.14C122.17 124.8 123.46 126.63 126.38 127.61C126.2 125.48 126.01 123.45 123.9 122.07C124.98 121.62 125.46 122.239 126.29 122.369H126.3ZM174.33 121.99C174.25 122.88 173.32 123.14 173.08 123.86C172.84 124.57 172.53 125.25 172.31 125.96C172.16 126.42 172.01 127.01 172.4 127.34C172.82 127.7 173.29 127.28 173.69 127.05C175.33 126.12 176.37 123.89 176.09 121.89C175.9 120.51 175.14 119.3 173.76 119.47C172.42 119.63 172.19 120.96 172.46 122.35C173.1 122.31 173.54 121.59 174.34 122L174.33 121.99ZM100.21 255.41C98.6299 257.1 97.2799 258.54 95.7999 260.11C97.5599 260.63 99.1199 261.1 100.81 261.6C100.61 259.57 100.43 257.67 100.21 255.41ZM203.52 254.65V260.71C205.01 260.24 206.33 259.82 207.84 259.35C206.33 257.71 205.03 256.29 203.52 254.65ZM16.3299 168.45C18.0199 167.42 19.5999 166.69 21.4699 166.48C21.0199 165.46 20.6199 164.55 20.1899 163.59C18.3199 164.77 16.6299 165.9 16.3299 168.46V168.45ZM288.03 168.38C287.8 165.91 286.29 164.55 284.55 163.91C283.53 163.53 283.75 165.47 283.06 166.13C283.01 166.18 283.07 166.36 283.09 166.55C284.82 166.6 286.31 167.439 288.02 168.369L288.03 168.38Z" fill="#050605"></path><path d="M155.011 3.69952C138.931 3.60952 125.871 7.57939 114.621 16.8094C110.111 20.5094 106.401 24.9195 103.361 29.9095C102.661 31.0495 102.891 31.7392 103.791 32.5892C106.261 34.9192 108.201 37.6194 108.821 41.0594C109.461 44.6194 108.191 47.3093 105.421 48.2493C102.671 49.1893 99.0105 47.4694 97.6005 44.5394C96.1505 41.5394 96.7105 38.5694 97.7905 35.6194C99.1705 31.8394 99.2006 31.8095 95.2806 30.4695C85.9506 27.2595 77.4306 29.2292 70.0306 35.3192C58.5206 44.8092 51.7706 57.2196 48.9006 71.7996C48.7906 72.3496 48.6806 72.8893 48.5706 73.4393C48.3106 74.8193 48.5506 75.6893 50.1706 76.2093C54.6606 77.6393 58.0406 80.5694 60.5006 84.5794C61.8306 86.7494 62.3005 89.1492 61.8505 91.6092C61.4505 93.7892 60.4806 95.7692 58.2106 96.6292C55.8106 97.5292 53.6606 96.7595 51.8106 95.2195C48.4306 92.4295 47.2506 88.4792 46.4606 84.3992C46.1206 82.6292 45.9806 80.8194 45.8306 79.0193C45.7306 77.8093 45.2105 77.4495 43.9805 77.4095C37.4305 77.1895 32.0205 79.8092 27.4105 84.1693C19.3205 91.8293 15.2306 101.509 13.7806 112.379C12.1306 124.799 14.4905 136.489 20.7305 147.369C21.0005 147.839 21.5506 148.4 20.8806 148.8C20.0606 149.29 19.8506 148.4 19.5506 147.92C15.1506 140.91 12.5006 133.31 11.6306 125.04C10.4406 113.72 12.1306 102.939 17.6206 92.9193C21.8906 85.1292 27.7706 78.9793 36.4506 76.0193C39.0606 75.1293 41.7405 74.8293 44.4805 74.9793C45.4905 75.0393 45.9206 74.7892 46.0706 73.6492C47.6606 61.1092 53.2605 50.3394 60.9805 40.5594C65.5105 34.8294 71.0406 30.3393 78.0806 27.9793C85.1306 25.6093 92.0606 25.8795 98.7706 29.1795C99.9706 29.7695 100.491 29.6593 101.201 28.4793C110.441 13.2393 124.381 4.89962 141.551 1.79962C155.251 -0.670377 168.731 0.539584 181.581 6.25958C190.561 10.2596 197.511 16.3995 201.371 25.6595C201.691 26.4295 201.961 26.8895 203.041 26.6395C213.221 24.3295 222.191 27.1493 229.761 33.9393C239.921 43.0593 247.101 54.2393 250.821 67.4593C251.761 70.7893 252.241 74.2696 251.581 77.7796C251.431 78.6096 251.181 79.5593 252.481 79.9793C261.031 82.7493 266.521 89.0695 270.971 96.4095C277.941 107.899 282.081 120.339 282.981 133.819C283.241 137.649 283.651 141.47 282.861 145.26C282.331 147.83 281.381 150.23 278.791 151.5C278.111 151.83 277.341 152.349 276.801 151.369C276.351 150.539 276.971 150.13 277.621 149.75C280.031 148.37 280.721 145.999 280.781 143.519C281.191 125.199 276.731 108.339 265.271 93.7293C261.831 89.3493 257.641 85.8196 252.341 83.7596C250.861 83.1896 250.221 83.5092 249.441 84.8992C246.261 90.5692 241.691 94.1593 234.801 93.7693C234.041 93.7293 233.281 93.5792 232.551 93.3592C228.351 92.1392 227.831 90.7894 230.321 87.1194C233.911 81.8194 239.091 79.3092 245.391 79.1693C247.051 79.1292 247.821 78.9196 247.951 76.9896C248.271 72.2296 247.461 67.6794 245.721 63.3294C240.951 51.3894 234.061 40.9692 223.301 33.5692C217.811 29.7892 211.641 28.4195 204.991 29.7195C203.611 29.9895 202.871 30.2494 203.221 32.0994C203.991 36.0894 203.951 40.1496 202.301 43.9896C200.571 48.0096 197.671 49.5194 194.241 48.3694C190.911 47.2494 188.651 43.2094 189.311 39.6194C190.201 34.7994 193.141 31.4892 197.201 29.1092C198.591 28.2892 198.781 27.6395 198.131 26.1795C194.061 17.0795 186.871 11.4895 177.871 7.92951C170.001 4.81951 161.801 3.51925 155.001 3.66925L155.011 3.69952ZM59.4306 90.0794C59.4306 85.4294 53.9606 79.0495 49.4606 78.4095C48.6806 78.2995 48.4406 78.6196 48.4506 79.2996C48.5306 84.1996 49.3306 88.8893 52.7106 92.7093C53.8106 93.9493 55.2106 95.1094 57.0906 94.3494C58.9606 93.5894 59.4806 91.9694 59.4206 90.0794H59.4306ZM200.471 36.3192C200.381 35.5292 200.191 34.1596 200.051 32.7796C199.961 31.9096 199.551 31.6394 198.811 32.1194C195.581 34.1894 193.151 36.8794 192.601 40.8294C192.341 42.6994 193.811 44.7895 195.461 45.2195C197.081 45.6395 198.611 44.6995 199.451 42.6395C200.191 40.8195 200.471 38.8892 200.471 36.3192ZM106.351 42.5096C106.221 39.2296 104.451 36.8193 102.181 34.6693C101.701 34.2192 101.211 34.1092 100.841 34.8192C99.7006 37.0492 98.7006 41.5493 100.391 43.9993C101.411 45.4893 102.841 46.1195 104.531 45.6595C106.011 45.2595 106.451 43.9896 106.351 42.5096ZM236.091 90.1795C240.531 89.9495 243.741 87.6995 246.021 83.9295C246.581 82.9995 246.461 82.4892 245.231 82.6492C241.291 83.1592 237.581 84.2094 234.791 87.2894C234.191 87.9494 233.101 88.6395 233.401 89.4695C233.791 90.5595 235.131 89.8993 236.091 90.1693V90.1795Z" fill="#a0d195"></path><path d="M133.821 339.181C133.571 338.891 133.361 338.431 133.051 338.341C125.291 335.981 118.691 331.361 111.801 327.341C104.051 322.821 96.3109 318.271 88.7109 313.511C81.6409 309.091 75.1808 303.91 70.6308 296.73C70.0008 295.74 69.3909 294.71 68.9609 293.62C68.0709 291.38 68.6908 290.29 71.0708 289.82C71.6708 289.7 71.8209 289.64 71.7809 288.95C71.5709 284.72 73.9908 282.201 78.2408 282.091C82.1908 281.981 85.7408 283.42 89.2608 284.91C96.7308 288.09 103.381 292.69 110.121 297.12C121.001 304.26 132.631 309.43 145.551 311.66C155.431 313.36 164.761 311.83 173.911 308.02C185.811 303.06 197.251 297.231 208.121 290.291C212.461 287.521 216.871 284.871 221.621 282.851C224.921 281.451 228.291 280.42 231.951 280.87C233.741 281.09 235.291 281.801 236.511 283.141C238.781 285.621 238.811 288.651 236.091 290.601C233.161 292.711 231.161 295.4 229.391 298.44C227.621 301.48 224.721 303.381 221.801 305.171C207.631 313.871 192.841 321.46 178.161 329.24C165.201 336.1 152.191 342.88 139.231 349.73C138.021 350.37 137.181 350.671 136.011 349.511C135.261 348.771 134.041 348.771 133.891 347.171C133.771 345.901 132.231 346.781 131.201 346.461C132.691 344.791 134.431 343.491 136.451 342.881C150.781 338.561 163.031 330.31 175.411 322.31C187.691 314.38 199.951 306.431 212.211 298.471C214.141 297.221 215.961 295.81 217.531 294.11C217.871 293.74 218.251 293.27 217.941 292.83C217.631 292.38 217.041 292.61 216.581 292.78C214.141 293.66 211.911 294.92 209.751 296.33C192.491 307.58 175.221 318.811 157.981 330.101C150.871 334.751 150.851 334.891 143.691 330.261C127.611 319.871 111.601 309.38 95.5508 298.95C92.2208 296.79 88.7908 294.811 85.1908 293.131C84.6108 292.861 83.8308 292.15 83.3508 292.95C82.8708 293.75 83.9108 294.101 84.3808 294.511C90.8308 299.981 98.0809 304.31 105.151 308.87C118.951 317.77 132.821 326.581 146.651 335.431C146.761 335.501 146.821 335.641 147.111 336.041C143.391 336.881 140.431 339.671 136.401 339.171C135.861 339.101 135.451 339.031 135.901 339.881C136.231 340.511 135.321 340.471 134.981 340.631C132.081 341.971 129.601 343.841 127.531 346.251C126.931 346.951 126.271 347.26 125.421 347.41C115.991 349.04 107.211 352.391 99.0909 357.461C98.3709 357.911 97.7308 358.271 96.8008 357.891C81.5108 351.761 65.8308 346.651 50.8708 339.681C35.0708 332.321 21.6408 322.181 12.3608 307.131C7.40082 299.091 3.67083 290.601 3.56083 280.961C3.43083 269.991 8.97086 262.351 18.2809 257.261C27.3809 252.291 37.2909 251.341 47.4609 251.891C61.0809 252.631 74.0008 256.551 86.8708 260.631C90.1208 261.661 93.3508 262.771 96.6308 263.681C99.9808 264.611 103.081 265.661 105.691 268.291C108.401 271.011 112.271 271.771 115.981 272.461C116.971 272.641 117.841 272.94 118.691 273.44C133.541 282.08 149.581 286.271 166.731 286.141C173.571 286.091 180.381 285.661 186.851 283.101C194.461 280.081 199.841 275.11 201.141 266.62C201.321 265.45 201.851 264.54 203.091 264.19C215.051 260.76 226.761 256.41 238.971 253.87C251.171 251.33 263.431 250.46 275.551 254.2C284.771 257.04 292.281 262.17 296.041 271.49C298.951 278.71 298.111 286.05 295.591 293.15C289.811 309.4 279.271 321.991 265.061 331.551C255.241 338.151 244.401 342.691 233.381 346.801C217.371 352.771 201.601 359.39 185.391 364.81C174.411 368.49 163.231 371.34 151.661 372.44C151.311 372.47 150.961 372.47 150.621 372.53C148.891 372.84 148.011 372.67 148.121 370.37C148.281 367.12 146.751 364.17 145.291 361.31C143.441 357.69 141.011 354.47 138.041 351.36C142.981 348.76 147.821 346.241 152.631 343.671C175.271 331.621 198.231 320.16 220.361 307.16C225.341 304.23 229.891 300.861 232.351 295.341C233.021 293.831 234.431 292.961 235.771 292.051C240.231 289.031 239.881 283.5 235.101 280.9C232.341 279.4 229.461 279.63 226.561 280.32C221.351 281.56 216.661 284.021 212.191 286.841C200.351 294.311 188.231 301.221 175.311 306.671C168.271 309.641 161.041 311.871 153.301 311.671C145.291 311.461 137.611 309.56 130.131 306.73C121.541 303.49 113.821 298.68 106.201 293.65C99.4608 289.2 92.5808 285 84.8808 282.36C82.6908 281.61 80.4408 281.251 78.1108 281.341C74.0908 281.501 71.3108 283.941 70.7908 287.931C70.7308 288.411 70.7908 288.72 70.1908 289.03C67.6208 290.35 67.1308 291.81 68.3708 294.45C69.6808 297.24 71.5309 299.69 73.5309 302.02C77.1509 306.22 81.3708 309.76 86.0108 312.74C98.8308 320.97 112.001 328.63 125.341 335.99C128.031 337.47 130.911 338.501 133.881 339.261C133.891 339.241 133.911 339.22 133.931 339.2C133.891 339.21 133.841 339.22 133.801 339.23L133.821 339.181Z" fill="#FFF"></path><path d="M37.26 227.738C32.41 219.198 29.88 209.788 27.08 200.478C26.92 199.958 26.57 199.478 27.45 199.198C32.91 197.438 35.59 193.029 37.83 188.209C37.85 188.159 37.94 188.138 38.13 188.028C39.03 188.668 39.44 189.708 39.86 190.688C43.05 198.248 48.84 203.878 54.09 209.898C59.03 215.568 64.26 220.988 69.18 226.678C72.56 230.578 74.24 235.418 75.75 240.278C75.89 240.738 75.9201 241.248 76.09 241.698C76.1701 241.918 76.44 242.199 76.64 242.209C77.07 242.239 77.22 241.828 77.19 241.488C77.09 240.238 77.03 238.978 76.79 237.758C76.06 234.138 75.16 230.558 73.16 227.378C72.84 226.868 72.76 226.368 72.88 225.798C75.58 212.978 80.02 200.798 88.57 190.718C99.44 177.908 113.29 169.948 130.09 167.478C131.53 167.268 132.97 166.988 134.4 166.738C134.46 166.728 134.53 166.758 134.6 166.768C134.96 167.358 134.73 167.998 134.73 168.608C134.71 172.698 135.7 174.019 139.65 175.209C142.61 176.099 145.7 176.019 148.7 176.539C148.66 177.369 148.62 178.199 148.6 179.039C148.5 183.729 148.51 183.688 143.81 183.408C142.42 183.328 142.08 183.008 142.79 181.718C143.54 180.338 144.4 178.948 144.25 177.228C143.6 178.258 143.24 179.428 142.66 180.478C142.16 181.378 142.1 183.098 140.76 182.868C138.85 182.548 136.58 182.919 135.22 180.919C135.89 180.779 136.25 180.418 136.29 179.658C135.5 179.798 135.28 180.278 135.14 180.828C132.78 181.608 131.51 179.638 129.87 178.678C128.82 178.068 128.75 177.528 130.12 176.928C131.83 176.188 133.65 175.438 134.55 173.548C133.33 174.158 132.25 174.968 131.08 175.628C128.16 177.288 127.7 177.019 126.63 173.749C126.26 172.619 126.67 171.338 125.77 169.878C125.7 170.748 125.62 171.148 125.63 171.548C125.73 176.348 128.79 180.138 134.32 182.118C141.61 184.728 149.15 185.188 156.75 184.068C161.69 183.338 166.06 181.288 169.39 177.368C171.4 174.988 172.12 172.348 171.19 168.718C170.74 170.258 170.12 170.378 169.16 169.988C167.74 169.408 166.25 169.378 164.82 169.948C165.99 170.288 167.18 170.288 168.31 170.568C171.07 171.248 171.37 172.058 170.14 174.678C169.59 175.838 169.09 176.178 168.05 175.108C166.96 173.998 165.62 173.288 163.99 173.478C164.56 173.908 165.21 174.108 165.82 174.408C168.82 175.848 168.99 176.979 166.51 179.039C165.92 179.529 165.26 179.918 164.64 180.368C163.81 180.968 163.31 180.858 162.61 179.968C161.61 178.688 161.12 176.959 159.49 176.209C159.43 176.029 159.36 175.838 159.3 175.648C159.24 175.688 159.14 175.758 159.14 175.768C159.23 175.938 159.33 176.098 159.42 176.258C159.64 176.678 159.9 177.078 160.06 177.518C160.58 178.968 163 180.038 161.89 181.548C161.01 182.758 158.83 182.878 157.1 183.028C156.9 183.048 156.69 182.978 156.49 182.948C156.13 180.858 155.75 178.788 154.73 176.898C154.73 178.098 154.92 179.238 155.24 180.348C155.5 181.268 155.19 182.518 156.51 182.928C154.79 183.768 152.93 183.678 151.08 183.798C149.31 183.908 148.78 183.028 149.09 181.518C149.43 179.848 149.36 178.198 149.25 176.528C152.13 176.058 155.04 175.888 157.89 175.148C163.08 173.798 163.87 172.869 163.56 167.499C163.49 166.269 163.85 166.039 164.92 166.249C172.85 167.739 180.86 168.929 188.55 171.459C203.84 176.499 215.08 186.348 222.56 200.568C226.77 208.568 229.8 216.968 231.5 225.848C231.66 226.698 231.62 227.748 232.73 228.068C233.84 228.388 234.35 227.538 234.95 226.868C242.69 218.178 250.44 209.498 258.15 200.778C260.8 197.788 262.93 194.449 264.48 190.749C264.91 189.729 265.4 188.738 266.33 187.778C267.74 190.608 269.23 193.158 271.28 195.478C273.76 198.288 276.74 199.468 280.22 199.698C281.75 199.798 281.77 200.199 281.24 201.419C275.62 214.329 269.06 226.748 261.82 238.818C260.44 241.128 258.73 243.138 255.98 243.908C255.46 244.058 255.2 244.188 255.24 244.878C255.38 247.358 254.04 248.918 251.63 249.118C242.08 249.938 232.78 251.998 223.61 254.648C222.24 255.048 221.24 254.829 220.14 254.039C214.81 250.209 211.83 244.599 208.55 239.169C205.63 234.329 204.67 229.508 207.38 224.228C208.26 222.518 208.65 220.548 209.2 218.678C209.46 217.808 209.36 216.968 208.27 216.698C207.26 216.448 206.67 216.968 206.4 217.888C204.14 225.478 201.3 232.908 200.31 240.848C199.75 245.398 200.11 249.908 200.66 254.398C201.64 262.448 199.14 266.558 191.34 268.678C183.5 270.798 175.43 271.368 167.35 271.698C151.17 272.368 135.05 271.258 118.94 269.928C116.03 269.688 113.16 269.098 110.43 267.948C105.22 265.758 102.31 261.448 103.11 255.858C104.87 243.528 101.59 232.278 96.36 221.358C96.07 220.748 95.9 219.838 94.95 220.298C94.19 220.668 94.62 221.379 94.82 221.959C95.9 225.039 96.94 228.138 98.07 231.198C98.42 232.148 98.34 232.898 97.85 233.758C93.7 241.028 89.04 247.948 83.91 254.578C82.83 255.978 81.91 255.978 80.44 255.548C73.04 253.348 65.61 251.228 57.94 250.118C54.91 249.678 51.86 249.358 48.8 249.128C47.54 249.038 46.59 248.698 45.7 247.768C41.54 243.438 39.19 238.438 39.76 232.308C39.91 230.698 39.8301 229.218 38.0301 228.508L38.07 228.548C38.06 228.258 37.91 228.108 37.61 228.088L37.65 228.128C37.64 227.838 37.48 227.689 37.19 227.669L37.23 227.688L37.26 227.738ZM150.77 210.198C149.91 208.898 149.29 207.808 148.52 206.828C145.19 202.608 140.92 200.469 135.52 201.669C121.96 204.659 116.57 219.998 125.13 231.228C129.68 237.198 135.83 241.108 142.61 244.088C144.31 244.838 148.41 248.138 149.28 248.338C151.53 248.848 153.59 248.198 155.52 247.238C166.26 241.948 173.14 233.188 177.57 222.338C179.15 218.468 179.73 214.388 178.65 210.268C177.31 205.198 174.46 201.259 169.26 199.669C164.29 198.149 159.98 199.798 156.2 203.138C153.98 205.098 152.51 207.639 150.77 210.209V210.198ZM127.15 171.658C127.18 171.858 127.22 172.049 127.25 172.249C129.55 171.579 131.86 170.908 134.16 170.228C134.1 170.018 134.03 169.818 133.97 169.608C131.69 170.288 129.42 170.968 127.14 171.648L127.15 171.658ZM136.53 179.568C137.49 178.588 137.99 177.938 137.84 176.988C137.37 177.638 136.63 178.108 136.53 179.568Z" fill="#a0d195"></path><path d="M145.801 369.899C145.801 371.619 145.151 372.699 143.941 373.449C142.521 374.329 141.021 375.059 139.441 375.599C130.931 378.529 123.301 382.999 116.301 388.619C112.501 391.669 108.531 394.49 104.221 396.79C102.991 397.45 101.741 398.079 100.371 398.339C99.2108 398.559 98.0909 398.319 97.4509 397.229C96.7809 396.079 97.7909 395.429 98.4609 394.799C99.5709 393.749 100.811 392.84 101.921 391.79C102.591 391.15 103.191 390.25 102.261 389.46C101.451 388.76 100.761 389.439 100.121 390.059C98.8708 391.269 97.5908 392.479 95.8008 392.859C94.4008 393.149 93.0908 392.889 92.2908 391.639C91.5308 390.449 92.1209 389.32 92.9509 388.42C93.8909 387.4 94.9808 386.519 95.9808 385.549C96.7008 384.849 97.9309 384.219 97.2009 383.009C96.3409 381.599 95.2309 382.759 94.2809 383.099C93.0409 383.539 91.8809 384.219 90.6309 384.599C89.6309 384.899 88.5209 384.969 87.8409 383.849C87.1609 382.729 88.0109 381.989 88.6409 381.309C89.8609 379.979 91.1708 378.729 92.4808 377.479C93.1408 376.849 93.8409 376.259 94.1309 375.369C94.3609 374.669 94.3209 373.96 93.5809 373.54C92.9109 373.17 92.3909 373.5 91.9409 374C91.7609 374.21 91.5709 374.42 91.4009 374.63C90.2109 376.05 88.8009 376.529 87.2009 375.389C85.7709 374.369 85.5609 372.349 86.9409 370.769C90.2709 366.989 94.2508 363.929 98.4308 361.149C108.591 354.379 119.791 350.57 131.951 349.54C134.031 349.36 134.281 349.479 135.651 351.049C140.001 356.029 143.361 361.579 145.321 367.929C145.551 368.659 145.691 369.409 145.821 369.899H145.801Z" fill="#FEFEFE"></path><path d="M158.46 95.5605C159.23 103.641 162.57 109.951 168.04 115.181C169.48 116.551 170.07 118.12 170.03 120.19C169.91 125.35 170.14 130.55 168.56 135.53C165.98 143.64 160.93 149.54 152.25 151.12C143.99 152.62 134.81 146.69 130.97 138.08C128.64 132.85 128.71 127.26 128.07 121.74C127.51 116.91 129.71 114.301 133.9 112.701C139.63 110.511 145.2 108.011 150.01 104.061C152.98 101.621 155.65 98.8903 158.46 95.5703V95.5605ZM157.63 113.971C156.37 113.971 155.06 113.881 155.09 115.471C155.11 116.881 156.28 117.241 157.46 117.171C158.97 117.081 160.49 116.931 161.97 116.641C162.62 116.511 163.72 116.521 163.62 115.461C163.53 114.491 162.48 114.551 161.81 114.431C160.39 114.181 158.94 114.101 157.63 113.971ZM150.17 125.631C150.17 124.311 150.17 123.001 150.17 121.681C150.17 121.071 150.03 120.561 149.28 120.551C148.59 120.551 148.57 121.051 148.55 121.561C148.44 124.321 148.32 127.091 148.21 129.851C148.18 130.571 148.25 131.39 149.18 131.36C150.07 131.33 150.14 130.48 150.16 129.78C150.19 128.4 150.16 127.011 150.16 125.631H150.17ZM143.28 122.57C143.32 122.05 142.98 121.79 142.56 121.7C140.23 121.22 137.87 121.46 135.54 121.57C135.19 121.59 133.87 122.47 134.62 123.12C135.45 123.83 137.14 124.58 137.83 124.19C139.32 123.35 140.92 123.77 142.36 123.2C142.75 123.05 143.18 123.09 143.27 122.57H143.28ZM164.07 122.73C163.58 122.17 163.28 121.381 162.23 121.421C160.71 121.481 159.19 121.39 157.67 121.45C156.77 121.49 155.39 121.201 155.28 122.421C155.16 123.831 156.78 122.77 157.37 123.4C157.41 123.44 157.5 123.461 157.56 123.461C159.49 123.501 161.46 124.8 163.35 123.23C163.52 123.09 163.99 123.231 164.05 122.711L164.07 122.73ZM140.03 117.221C140.03 117.221 140.03 117.2 140.03 117.19C140.24 117.21 140.44 117.24 140.65 117.24C141.76 117.21 142.94 116.961 142.93 115.681C142.91 114.321 141.68 114.15 140.59 114.33C139.16 114.57 137.75 114.941 136.34 115.301C135.97 115.401 135.53 115.61 135.6 116.15C135.67 116.68 136.1 116.761 136.52 116.811C137.69 116.961 138.86 117.091 140.03 117.221ZM145.41 137.771C146.07 137.771 146.73 137.881 146.84 137.141C146.95 136.441 146.38 136.201 145.81 136.101C144.75 135.931 143.83 135.51 143.16 134.66C142.89 134.31 142.59 133.93 142.17 134.19C141.69 134.49 141.8 135.04 142.04 135.49C142.78 136.89 144.07 137.47 145.42 137.78L145.41 137.771Z" fill="#FEFEFE"></path><path d="M158.94 374.05C174.01 371.71 188.06 366.93 201.95 361.67C202.85 361.33 203.48 361.48 204.22 362.01C207.37 364.21 210.25 366.73 213.12 369.27C214.05 370.1 214.88 371.06 215.18 372.34C215.5 373.73 215.06 374.87 213.86 375.57C212.68 376.25 211.46 376.19 210.43 375.14C210.14 374.84 209.85 374.54 209.57 374.23C209.04 373.65 208.48 372.999 207.64 373.619C206.71 374.309 206.85 375.249 207.52 375.989C208.97 377.579 210.56 379.039 212.02 380.619C212.87 381.539 214.31 382.48 213.35 383.92C212.39 385.36 210.85 384.74 209.55 384.23C208.32 383.75 207.16 383.11 205.94 382.61C205.3 382.35 204.59 382.11 204.09 382.92C203.63 383.67 203.98 384.28 204.5 384.79C205.61 385.85 206.81 386.81 207.88 387.9C208.92 388.96 210 390.209 208.92 391.739C207.83 393.279 206.17 393.199 204.57 392.579C203.25 392.059 202.23 391.089 201.23 390.119C200.56 389.469 199.83 388.69 198.95 389.57C198.09 390.43 198.9 391.22 199.46 391.92C200.42 393.14 201.82 393.87 202.93 394.92C203.56 395.52 204.46 396.12 203.94 397.18C203.38 398.32 202.35 398.71 201.13 398.43C199.28 398 197.64 397.06 195.99 396.17C192.12 394.08 188.58 391.48 185.15 388.75C178.25 383.24 170.82 378.69 162.43 375.81C161.45 375.47 160.51 375.01 159.55 374.6C159.43 374.55 159.34 374.43 158.93 374.07L158.94 374.05Z" fill="#FEFEFE"></path><path d="M278.509 170.67C277.269 170.91 276.299 170.64 275.349 171.04C273.109 171.99 272.409 174.399 273.729 176.829C274.319 177.909 275.549 178.769 274.629 180.329C274.349 180.799 274.989 181.49 275.579 181.42C276.619 181.3 277.409 180.68 277.459 179.53C277.499 178.57 276.819 177.879 276.409 177.079C275.849 176.009 274.649 174.769 275.799 173.699C276.989 172.599 278.259 173.77 279.319 174.48C280.409 175.21 281.369 176.15 282.439 176.92C283.209 177.47 284.159 177.83 284.829 176.86C285.409 176.02 285.169 175.039 284.469 174.369C283.729 173.659 282.789 173.15 281.969 172.51C281.419 172.08 280.869 171.57 281.079 170.78C281.289 170.01 282.019 169.78 282.689 169.61C284.609 169.13 286.019 170.16 287.399 171.27C288.119 171.85 288.729 172.91 289.879 172.3C290.899 171.76 290.799 170.66 290.849 169.71C291.009 166.59 289.649 164.23 287.199 162.39C286.419 161.8 285.099 161.22 285.899 159.97C286.559 158.93 287.819 159.04 288.949 159.36C291.859 160.19 293.739 162.21 294.809 164.89C297.729 172.2 297.619 179.409 293.659 186.369C291.799 189.649 289.449 192.589 287.179 195.579C286.259 196.779 284.619 196.16 283.329 196.6C279.609 197.88 276.569 196.96 273.679 193.82C269.229 188.98 267.499 183.4 267.459 177.1C267.409 171 272.979 163.339 278.769 161.329C279.669 161.019 280.709 160.58 281.499 161.48C282.239 162.32 281.939 163.36 281.569 164.26C280.969 165.69 279.899 166.809 278.879 167.949C278.159 168.749 277.299 169.5 278.529 170.67H278.509Z" fill="#FEFEFE"></path><path d="M7.55951 175.031C7.69951 171.391 8.19948 167.961 9.65948 164.751C10.8595 162.121 12.6495 160.081 15.6095 159.331C16.3895 159.131 17.1195 159.131 17.8495 159.431C18.9595 159.891 19.2495 160.571 18.3195 161.471C17.5695 162.201 16.7495 162.851 15.9795 163.551C13.7495 165.581 13.2395 168.151 13.7395 170.991C14.0295 172.591 14.9495 172.931 16.2495 171.961C17.0295 171.381 17.7495 170.711 18.5495 170.171C19.4395 169.561 20.4695 169.361 21.5395 169.581C22.3095 169.741 23.1095 170.001 23.3195 170.811C23.5495 171.691 22.8695 172.201 22.1895 172.611C21.2395 173.191 20.1995 173.641 19.6495 174.701C19.2595 175.461 18.8795 176.251 19.6495 177.001C20.3995 177.731 21.2095 177.471 21.9195 176.951C23.2695 175.971 24.5295 174.861 25.9195 173.951C26.6895 173.451 27.7395 172.811 28.5895 173.691C29.3995 174.521 28.8495 175.521 28.3895 176.391C27.9995 177.121 27.5095 177.811 27.1695 178.571C26.6595 179.701 27.0295 180.611 28.0795 181.231C28.5095 181.491 29.0095 181.561 29.4495 181.201C29.8195 180.891 29.8795 180.361 29.6595 180.061C28.9195 179.051 29.6595 178.401 30.1295 177.671C32.5895 173.881 31.4595 171.421 26.9595 170.791C26.7095 170.751 26.2495 170.611 26.2495 170.591C26.8295 167.801 23.8595 166.881 23.1795 164.771C23.1595 164.711 23.0895 164.661 23.0695 164.591C22.7595 163.691 22.0895 162.781 22.9295 161.871C23.8095 160.921 24.9095 160.961 26.0095 161.411C28.7395 162.521 30.7195 164.581 32.6295 166.711C37.0995 171.671 37.7495 177.421 36.1995 183.681C35.0395 188.351 32.7195 192.261 29.1395 195.451C26.6295 197.681 23.8095 197.021 20.8495 196.741C17.6395 196.431 16.1995 194.341 14.5795 192.121C11.2695 187.601 8.19951 182.991 7.68951 177.181C7.61951 176.421 7.56953 175.661 7.51953 175.031H7.55951Z" fill="#FEFEFE"></path><path d="M38.0591 228.55C38.9691 230.1 38.9891 231.77 38.9291 233.51C38.7191 239.54 41.3991 244.38 45.4091 248.63C45.0191 249.33 44.3991 248.979 43.9191 248.989C40.7791 249.029 37.6291 248.9 34.5291 249.47C33.0991 249.73 32.4091 249.239 31.7891 247.989C26.6191 237.599 22.8991 226.68 19.7391 215.55C18.1991 210.13 16.7991 204.67 15.3691 199.22C15.1091 198.23 15.0091 197.189 14.7891 195.869C16.2891 196.749 17.5391 197.39 18.6891 198.17C20.4291 199.34 22.3291 200.049 24.3991 199.739C25.9291 199.519 26.4291 200.08 26.7791 201.46C28.4691 208.07 30.7691 214.5 33.0391 220.93C33.7591 222.97 34.6091 224.959 35.8791 226.729C36.2091 227.189 36.2891 228.12 37.2691 227.76L37.2291 227.739C36.9791 228.289 37.1991 228.379 37.6891 228.199L37.6491 228.159C37.3991 228.709 37.7391 228.679 38.1091 228.619L38.0691 228.579L38.0591 228.55Z" fill="#a0d195"></path><path d="M254.58 249.04C255.42 247.7 256.6 246.74 256.26 245.17C256.16 244.71 256.5 244.609 256.85 244.489C259.6 243.519 261.16 241.3 262.6 238.96C269.73 227.39 275.97 215.37 281.3 202.88C282.13 200.94 282.88 199.189 285.18 198.399C286.66 197.889 288.16 197.09 289.35 195.76C289.78 196.79 289.55 197.589 289.35 198.359C285.56 212.529 281.98 226.77 276.18 240.31C274.92 243.25 273.44 246.089 272.08 248.979C271.76 249.649 271.46 250.159 270.54 249.989C265.34 249.019 260.08 248.91 254.59 249.04H254.58Z" fill="#a0d195"></path><path d="M160.489 150.568C160.279 155.288 160.279 159.438 160.629 163.578C160.789 165.518 160.959 167.459 161.199 169.389C161.379 170.819 160.769 171.609 159.469 172.049C152.819 174.299 146.129 174.509 139.399 172.419C138.089 172.009 137.119 171.249 137.229 169.759C137.339 168.309 136.759 166.798 138.879 165.828C146.449 162.358 153.219 157.638 159.159 151.778C159.439 151.498 159.739 151.239 160.479 150.559L160.489 150.568Z" fill="#FEFEFE"></path><path d="M98.7105 233.539C100.561 238.919 101.24 243.939 100.81 249.129C100.76 249.729 100.441 250.149 100.081 250.589C97.9705 253.189 95.7505 255.669 93.3105 257.969C92.4905 258.739 91.7305 258.938 90.6905 258.608C88.3805 257.868 86.0605 257.188 83.4805 256.398C89.1805 249.248 94.2905 241.879 98.7005 233.539H98.7105Z" fill="#a0d195"></path><path d="M220.67 255.52C218.68 256.1 216.9 256.349 215.38 257.119C212.35 258.649 210.2 257.789 208.35 255.239C207.74 254.399 207.01 253.63 206.24 252.93C203.1 250.07 202.05 246.67 202.84 242.43C203.43 239.24 203.95 236.04 204.86 232.51C208.64 241.34 212.72 249.57 220.66 255.51L220.67 255.52Z" fill="#a0d195"></path><path d="M135.231 180.931C136.581 182.931 138.861 182.561 140.761 182.881C142.111 183.111 142.161 181.4 142.661 180.49C143.241 179.44 143.591 178.28 144.251 177.24C144.401 178.96 143.551 180.35 142.791 181.73C142.081 183.03 142.421 183.341 143.811 183.421C148.501 183.691 148.501 183.741 148.601 179.051C148.621 178.221 148.671 177.391 148.701 176.551C148.891 176.551 149.071 176.551 149.261 176.541C149.361 178.211 149.441 179.86 149.101 181.53C148.791 183.04 149.321 183.921 151.091 183.811C152.941 183.691 154.791 183.78 156.521 182.94L156.501 182.961C156.701 182.991 156.911 183.051 157.111 183.041C158.841 182.891 161.021 182.771 161.901 181.561C163.011 180.051 160.591 178.97 160.071 177.53C159.911 177.09 159.651 176.691 159.431 176.271L159.491 176.221C161.131 176.971 161.611 178.7 162.611 179.98C163.311 180.87 163.811 180.971 164.641 180.381C165.261 179.931 165.921 179.541 166.511 179.051C168.981 176.991 168.811 175.861 165.821 174.421C165.211 174.131 164.551 173.92 163.991 173.49C165.621 173.3 166.961 174.01 168.051 175.12C169.091 176.19 169.601 175.85 170.141 174.69C171.371 172.07 171.071 171.26 168.311 170.58C167.181 170.3 165.991 170.301 164.821 169.961C166.261 169.391 167.741 169.411 169.161 170.001C170.121 170.391 170.741 170.27 171.191 168.73C172.131 172.36 171.411 175.011 169.391 177.381C166.071 181.301 161.701 183.35 156.751 184.08C149.151 185.2 141.621 184.731 134.321 182.131C128.791 180.151 125.731 176.371 125.631 171.561C125.631 171.161 125.691 170.761 125.771 169.891C126.671 171.361 126.261 172.641 126.631 173.761C127.701 177.031 128.161 177.301 131.081 175.641C132.251 174.971 133.331 174.161 134.551 173.561C133.651 175.451 131.831 176.2 130.121 176.94C128.741 177.54 128.821 178.08 129.871 178.69C131.511 179.65 132.781 181.621 135.141 180.841L135.231 180.931Z" fill="#FEFEFE"></path><path d="M126.311 122.36C125.481 122.23 125.001 121.61 123.921 122.06C126.021 123.44 126.221 125.47 126.401 127.6C123.471 126.62 122.181 124.791 122.431 122.131C122.571 120.561 123.331 119.231 124.951 119.381C126.431 119.521 126.241 121.06 126.321 122.36H126.311Z" fill="#FEFEFE"></path><path d="M174.341 121.98C173.541 121.58 173.101 122.29 172.461 122.33C172.191 120.94 172.421 119.6 173.761 119.45C175.141 119.29 175.901 120.49 176.091 121.87C176.361 123.87 175.331 126.1 173.691 127.03C173.291 127.26 172.821 127.68 172.401 127.32C172.021 126.99 172.171 126.4 172.311 125.94C172.531 125.23 172.841 124.551 173.081 123.841C173.321 123.121 174.251 122.86 174.331 121.97L174.341 121.98Z" fill="#FEFEFE"></path><path d="M16.3398 168.44C16.6398 165.88 18.3298 164.75 20.1998 163.57C20.6298 164.54 21.0298 165.441 21.4798 166.461C19.6098 166.671 18.0298 167.401 16.3398 168.431V168.44Z" fill="#FEFEFE"></path><path d="M288.041 168.368C286.331 167.428 284.84 166.599 283.11 166.549C283.09 166.359 283.02 166.179 283.08 166.129C283.77 165.459 283.54 163.528 284.57 163.908C286.31 164.548 287.811 165.909 288.051 168.379L288.041 168.368Z" fill="#FEFEFE"></path><path d="M133.82 339.179C133.82 339.179 133.91 339.158 133.95 339.148C133.93 339.168 133.91 339.189 133.9 339.209L133.83 339.179H133.82Z" fill="#050605"></path><path d="M150.78 210.189C152.53 207.619 154 205.079 156.21 203.119C159.99 199.769 164.29 198.119 169.27 199.649C174.47 201.239 177.32 205.18 178.66 210.25C179.75 214.37 179.17 218.449 177.58 222.319C173.14 233.169 166.26 241.929 155.53 247.219C153.6 248.169 151.54 248.819 149.29 248.319C148.42 248.119 144.32 244.819 142.62 244.069C135.84 241.089 129.69 237.179 125.14 231.209C116.58 219.979 121.97 204.639 135.53 201.649C140.93 200.459 145.2 202.589 148.53 206.809C149.3 207.789 149.92 208.879 150.78 210.179V210.189ZM174.2 214.399C174.17 213.859 174.2 213.159 174.09 212.469C173.32 207.689 170.37 202.999 164.36 203.859C161.4 204.279 159.3 206.05 157.49 208.25C155.48 210.69 154.1 213.509 152.77 216.349C152.26 217.429 151.72 218.319 150.32 218.139C149 217.969 148.46 217.099 148.12 215.949C147.44 213.669 146.56 211.47 145.14 209.54C142.89 206.48 139.95 204.919 136.1 205.639C128.72 207.019 123.31 215.359 124.91 222.739C126 227.729 128.71 231.759 132.65 234.809C137.34 238.439 141.72 242.879 148.33 242.839C148.52 242.839 148.77 242.939 148.89 243.079C150.27 244.729 151.75 243.989 153.22 243.259C161.11 239.299 166.59 232.929 170.89 225.419C172.81 222.069 174.24 218.529 174.22 214.399H174.2Z" fill="#FEFEFE"></path><path d="M127.16 171.649C129.44 170.969 131.71 170.289 133.99 169.609C134.05 169.819 134.12 170.019 134.18 170.229C131.88 170.899 129.57 171.57 127.27 172.25C127.24 172.05 127.2 171.859 127.17 171.659L127.16 171.649Z" fill="#FEFEFE"></path><path d="M156.53 182.949C155.2 182.539 155.52 181.289 155.26 180.369C154.94 179.259 154.75 178.11 154.75 176.92C155.77 178.81 156.15 180.89 156.51 182.97L156.53 182.949Z" fill="#FEFEFE"></path><path d="M136.539 179.561C136.629 178.101 137.379 177.63 137.849 176.98C137.999 177.93 137.509 178.581 136.539 179.561Z" fill="#FEFEFE"></path><path d="M135.141 180.83C135.281 180.28 135.501 179.8 136.291 179.66C136.251 180.42 135.891 180.791 135.221 180.921L135.131 180.83H135.141Z" fill="#FEFEFE"></path><path d="M159.43 176.271C159.33 176.111 159.23 175.95 159.15 175.78C159.15 175.78 159.25 175.7 159.31 175.66C159.37 175.85 159.43 176.031 159.5 176.221L159.44 176.271H159.43Z" fill="#FEFEFE"></path><path d="M37.6791 228.171C37.1891 228.351 36.9691 228.271 37.2191 227.711C37.5091 227.721 37.6591 227.881 37.6791 228.171Z" fill="#050605"></path><path d="M38.1002 228.589C37.7302 228.649 37.4002 228.679 37.6402 228.129C37.9302 228.139 38.0802 228.299 38.1002 228.589Z" fill="#050605"></path><path d="M157.64 113.96C158.95 114.09 160.4 114.17 161.82 114.42C162.49 114.54 163.54 114.479 163.63 115.449C163.73 116.519 162.62 116.51 161.98 116.63C160.5 116.92 158.98 117.069 157.47 117.159C156.29 117.229 155.12 116.87 155.1 115.46C155.07 113.87 156.38 113.96 157.64 113.96Z" fill="#050605"></path><path d="M150.17 125.62C150.17 127 150.19 128.391 150.17 129.771C150.15 130.471 150.08 131.321 149.19 131.351C148.26 131.381 148.19 130.571 148.22 129.841C148.33 127.081 148.45 124.311 148.56 121.551C148.58 121.041 148.59 120.541 149.29 120.541C150.04 120.541 150.18 121.061 150.18 121.671C150.18 122.991 150.18 124.3 150.18 125.62H150.17Z" fill="#050605"></path><path d="M143.279 122.561C143.189 123.081 142.759 123.04 142.369 123.2C140.929 123.77 139.329 123.351 137.839 124.191C137.149 124.581 135.459 123.83 134.629 123.12C133.879 122.48 135.199 121.59 135.549 121.57C137.889 121.46 140.239 121.21 142.569 121.7C142.989 121.79 143.329 122.05 143.289 122.57L143.279 122.561Z" fill="#050605"></path><path d="M164.069 122.721C164.009 123.251 163.539 123.091 163.369 123.241C161.469 124.811 159.499 123.501 157.579 123.471C157.509 123.471 157.429 123.451 157.389 123.411C156.799 122.781 155.179 123.841 155.299 122.431C155.399 121.201 156.779 121.491 157.689 121.461C159.209 121.391 160.729 121.491 162.249 121.431C163.289 121.391 163.589 122.181 164.089 122.741L164.069 122.721Z" fill="#050605"></path><path d="M140.039 117.21C138.869 117.07 137.699 116.94 136.529 116.8C136.109 116.75 135.679 116.669 135.609 116.139C135.539 115.599 135.979 115.39 136.349 115.29C137.759 114.92 139.169 114.559 140.599 114.319C141.689 114.129 142.919 114.31 142.939 115.67C142.959 116.96 141.769 117.209 140.659 117.229C140.449 117.229 140.249 117.199 140.039 117.179C140.039 117.189 140.039 117.2 140.039 117.21Z" fill="#050605"></path><path d="M145.421 137.76C144.071 137.45 142.781 136.88 142.041 135.47C141.801 135.02 141.691 134.48 142.171 134.17C142.591 133.91 142.891 134.29 143.161 134.64C143.831 135.49 144.751 135.909 145.811 136.079C146.381 136.169 146.951 136.419 146.841 137.119C146.731 137.869 146.061 137.75 145.411 137.75L145.421 137.76Z" fill="#050605"></path><path d="M174.19 214.4C174.21 218.53 172.78 222.071 170.86 225.421C166.57 232.931 161.08 239.301 153.19 243.261C151.72 244.001 150.25 244.73 148.86 243.08C148.74 242.94 148.49 242.841 148.3 242.841C141.69 242.881 137.31 238.441 132.62 234.811C128.68 231.761 125.97 227.73 124.88 222.74C123.27 215.36 128.69 207.021 136.07 205.641C139.92 204.921 142.86 206.491 145.11 209.541C146.53 211.471 147.41 213.67 148.09 215.95C148.43 217.1 148.97 217.971 150.29 218.141C151.7 218.321 152.24 217.431 152.74 216.351C154.07 213.511 155.45 210.691 157.46 208.251C159.27 206.051 161.37 204.28 164.33 203.86C170.34 203 173.29 207.691 174.06 212.471C174.17 213.151 174.14 213.86 174.17 214.4H174.19Z" fill="#a0d195"></path></svg>