<svg xmlns="http://www.w3.org/2000/svg" width="80" height="76" fill="none" viewBox="0 0 80 76">
<path fill="#8AD191" d="M16.418 16.058c0-7.576 0-11.363 2.368-13.71C21.155 0 24.976 0 32.566 0 40.21 0 44.033 0 46.4 2.347s2.369 6.135 2.369 13.711 0 11.363-2.369 13.71c-2.368 2.348-6.19 2.348-13.833 2.348-7.644 0-11.466 0-13.834-2.347-2.315-2.348-2.315-6.135-2.315-13.711"></path><path fill="#191919" d="M31.49 9.443c-.107 2.507-.269 5.015-.322 7.522-.054 1.814-.27 3.948.376 5.708.216.534 2.315.427 2.1-.213-.27-.747-.27-1.547-.323-2.347-.054-1.12 0-2.241 0-3.361.053-2.454.269-4.908.323-7.362.053-.534-2.1-.587-2.153.053"></path><path fill="#191919" d="M27.4 16.538c2.1.053 4.252-.053 6.352-.267.753-.053 1.56-.16 2.314-.213.162 0 .323-.053.538-.053.108 0 .754-.054.162 0h.161c.323 0-.7-.054-.376 0h.269c.7.053 1.4.053 2.1-.054.268-.053 1.022-.16 1.237-.427.538-.64-1.722-.853-1.884-.853-1.776-.16-3.606.053-5.383.213-.915.107-1.83.16-2.745.267-.215 0-.484.053-.7.053h-.377.162-1.723c-.592 0-1.291.054-1.884.214-.161.053-.807.213-.807.48-.108.64 2.26.64 2.584.64M32.245 33.236c0 .907-.054 1.867 0 2.774.053.907.215 1.814.215 2.721 0 .373.807.48 1.076.427.27 0 1.077-.054 1.077-.427 0-.907-.161-1.814-.215-2.72-.054-.908 0-1.868 0-2.775 0-.373-.808-.48-1.077-.427-.269 0-1.076.054-1.076.427M2.206 37.237c0-1.76-.053-3.574 0-5.335 0-.426-.807-.48-1.076-.48-.27 0-1.077.054-1.077.48-.054 1.761 0 3.575 0 5.335 0 .427.808.48 1.077.48s1.076-.053 1.076-.48M10.765 51.055c-2.423-.16-4.845-.48-6.513-2.347-1.723-1.92-1.938-4.535-1.884-6.989 0-.427-2.154-.427-2.154 0-.053 2.614.27 5.388 2.154 7.362 1.991 2.027 5.113 2.347 7.805 2.508.269 0 1.13.106 1.345-.214.216-.267-.646-.32-.753-.32M23.522 50.788c-1.077.054-2.153.16-3.23.214-.592.053-1.13.053-1.776.053h-2.207c-.215 0-1.077 0-1.077.373 0 .32.916.374 1.077.374 1.507 0 2.96 0 4.468-.053 1.13-.054 2.207-.16 3.337-.214.215 0 .915-.107.754-.427-.216-.426-1.077-.32-1.346-.32M32.35 42.146c-.108 1.76-.108 3.734-1.077 5.334-.753 1.227-1.991 2.294-3.39 2.828-.378.16-.378.427 0 .587.484.16 1.076.16 1.506 0 .97-.374 1.723-.854 2.53-1.547.539-.48 1.023-.96 1.4-1.548 1.023-1.653 1.076-3.734 1.184-5.654 0-.534-2.1-.587-2.153 0M10.335 19.686h.753c.377-.054.808.053 1.239.106.968.107 1.937.16 2.96.16.27 0 .538 0 .754-.106.107-.054.323-.107.323-.267 0-.373-.862-.373-1.077-.373h-.9690000000000001c.108 0 .162 0 0 0h-.377c-.43-.054-.86-.054-1.292-.107-.915-.053-1.883-.107-2.799-.053-.161 0-.969.16-.753.48.107.266.861.213 1.238.16M2.207 27.528c.108-1.547.43-3.147 1.292-4.481.861-1.334 2.153-2.187 3.66-2.614.323-.107.754-.427.377-.747s-1.023-.32-1.453-.213c-1.884.533-3.445 1.547-4.576 3.094C.484 24.007.161 25.767 0 27.475c0 .8 2.153.853 2.207.053M40.264 35.85c-.807 1.868-.484 4.269-.215 6.243.484 3.094 1.561 6.028 3.176 8.749 3.337 5.602 7.859 10.35 12.165 15.204.915 1.014 1.83 2.08 2.745 3.095.485.533 2.584.16 1.884-.587-2.799-2.988-5.436-6.082-8.128-9.176-4.09-4.695-8.182-9.87-9.474-16.112a19.7 19.7 0 0 1-.484-4.32c0-.908 0-1.921.377-2.775.377-.8-1.723-1.014-2.046-.32"></path><path fill="#191919" d="M45.917 42.039c-1.238-2.935-2.368-5.869-3.499-8.856-.969-2.561-1.937-5.122-2.53-7.79-.269-1.173-.484-2.4-.43-3.574 0-.427.054-.853.269-1.227l.27-.266c0 .053-.54-.054-.485.053.053.107.376.213.484.32.162.16.323.267.484.427.431.48.808 1.013 1.13 1.547a25.4 25.4 0 0 1 1.723 3.414c.593 1.494 1.077 2.988 1.723 4.428.43.96.861 1.92 1.346 2.828.269.48 2.045.533 2.099-.107.108-.8.377-1.654.807-2.347.323-.48.539-.64 1.077-.427.27.107.538.267.754.48.053.053.376.373.269.213.323.32 2.099.64 2.099-.106 0-.8.323-1.707 1.023-2.134.43-.267.861-.267 1.238.106.107.107.215.267.323.427.054.053.161.374.054.16.215.64 1.937.64 2.153 0-.054.267 0-.053.053-.107.054-.106.108-.213.162-.373.162-.373.43-.747.754-1.014.107-.106.269-.213.43-.266-.215.053-.054 0 .108.106.377.32.7.534.969.96 1.669 2.295 2.26 5.496 2.799 8.216.538 2.775.753 5.655 1.346 8.43.269 1.227.592 2.454 1.184 3.52.538 1.068 1.4 1.761 2.26 2.615a74 74 0 0 1 4.953 5.068c.323.32.915.373 1.346.32.161 0 1.076-.213.753-.587-1.507-1.707-3.068-3.36-4.737-4.908-.969-.907-1.938-1.654-2.53-2.88-.592-1.281-.969-2.722-1.238-4.109-.592-3.147-.861-6.348-1.56-9.496-.378-1.547-.754-3.04-1.4-4.535-.485-1.12-1.077-2.347-2.153-3.04-1.238-.8-3.122-.854-4.307.053-.646.48-1.076 1.227-1.292 2.027h2.154c-.539-1.76-2.853-2.027-4.414-1.654-1.508.374-2.53 1.6-2.53 3.148.7-.053 1.4-.107 2.099-.107-1.238-1.387-3.66-2.027-5.329-1.067-1.13.64-1.615 2.188-1.776 3.415.7-.054 1.4-.107 2.099-.107-.484-.907-.969-1.867-1.346-2.827-.646-1.44-1.076-2.935-1.668-4.375-.539-1.28-1.13-2.614-1.938-3.788-.592-.96-1.4-1.974-2.476-2.454-.97-.427-2.423-.373-3.176.48-.646.8-.538 2.08-.43 3.041.322 2.88 1.291 5.655 2.314 8.323a203 203 0 0 0 4.198 10.776c.108.427 2.261.32 1.938-.373"></path><path fill="#191919" d="M54.743 64.979c-1.776 2.027-3.714 4.481-4.468 7.095-.215.64-.43 1.814.27 2.294.591.427 1.776.267 2.422.107 1.453-.267 2.853-1.227 4.09-1.974 1.938-1.227 3.769-2.614 5.599-3.948 3.068-2.347 6.19-4.748 8.99-7.415 2.206-2.134 4.252-4.428 6.028-6.882.753-1.067 1.507-2.24 1.992-3.468.269-.693.538-1.654.107-2.347-.538-.907-1.991-.854-2.906-.747-1.13.107-2.1.694-3.015 1.28-1.4.96-2.691 2.134-3.876 3.361-.161.214.7.214.754.214.27 0 1.077.106 1.346-.16a24 24 0 0 1 2.745-2.508c.754-.587 1.507-1.173 2.368-1.6.27-.16.593-.214.916-.32-1.185.533-1.13-.267-.754.106.161.107.27.214.377.374.377.64.107 1.494-.108 2.187-.377 1.067-.969 2.027-1.615 2.988-1.56 2.347-3.499 4.481-5.49 6.508-2.476 2.508-5.222 4.695-8.02 6.829-3.069 2.4-6.245 4.961-9.744 6.722-.269.16-.538.267-.86.373-.108.054-.27.054-.378.107h-.053.215c-.215 0 .969 0 .915.053 0 .107.054-.053 0 0-.054-.16-.215-.266-.27-.426-.16-.427-.107-.907 0-1.334.27-1.334 1.023-2.614 1.777-3.735a26 26 0 0 1 2.745-3.627c.162-.214-.646-.214-.753-.214-.323 0-1.13-.106-1.346.107"></path><path fill="#191919" d="M78.053 48.28c1.292 1.281-2.692 7.15-3.122 7.63s-2.1-1.44-2.8-2.4c-.7-.961-1.184-1.335.916-2.935 1.991-1.6 4.09-3.201 5.006-2.294M57.49 67.006c.592.64 3.337 2.134 1.615 3.361s-6.03 4.054-7.106 3.734-.377-3.414.915-5.281c1.292-1.92 2.8-3.841 3.445-3.094.646.746 1.13 1.28 1.13 1.28"></path>
</svg>