<svg xmlns="http://www.w3.org/2000/svg" width="80" height="76" fill="none" viewBox="0 0 80 76">
<path fill="#191919" d="m12.358.367-.155 13.575-.154 15.22c0 1.955-.103 3.909-.207 5.863-.051.617-.051 1.285-.051 1.902 0 .309 0 .72.155.977.154.206.824.154 1.03.154.051 0 1.082-.102 1.03-.154-.36-.566-.154-1.697-.154-2.314.103-1.851.206-3.702.206-5.553.051-2.057.051-4.165.051-6.222.052-5.76.103-11.518.206-17.278 0-2.056.052-4.113.052-6.17.051-.206-2.01-.257-2.01 0"></path><path fill="#191919" d="M63.72.881a7 7 0 0 1 1.288-.154c-.515 0-.154 0 0 0h-.721c-.979 0-2.01 0-2.988-.051-.618 0-.154 0 0 0h-1.442c-.773 0-1.494-.052-2.267-.052a77 77 0 0 0-3.452-.103c-3.04-.102-6.13-.154-9.221-.205-7.11-.155-14.27-.257-21.43-.257h-6.08.155c-.103.051-.412 0-.567 0h-.72c-.31 0-1.289-.052-.052 0-1.134-.052-2.422-.155-3.504.154-.978.257.722.514.928.514 2.936.206 5.873.103 8.757.103 3.246 0 6.44.051 9.686.051l11.951.155c1.752.051 3.555.051 5.306.102h-.309 1.803c.618 0 1.185.052 1.803.052 2.988.103 5.976.206 8.964.257 1.082 0 2.164.051 3.246.051s2.215.052 3.297-.205c1.03-.257-.721-.515-.928-.515-1.081-.154-2.37-.205-3.503.103"></path><path fill="#191919" d="M67.48 38.727c.155-.257.103-.823.103-1.131.052-.926.103-1.8.103-2.726.104-2.776.155-5.553.258-8.33.206-6.685.515-13.37.618-20.054 0-1.44.052-2.828 0-4.268 0-.309.052-.72-.051-1.028C68.356.778 67.79.88 67.429.88c-.103 0-1.03 0-1.03.154 0 .155.978.155 1.03.155-.31-.052-.67-.052-.979-.103.155.103.052 1.337.103 1.594v3.908c-.051 3.65-.154 7.25-.309 10.901-.206 5.553-.36 11.158-.515 16.712-.052 1.08-.052 2.16-.155 3.188 0 .36.052 1.028-.154 1.337-.052.103.979.154 1.03.154.206 0 .927.051 1.03-.154"></path><path fill="#191919" d="M49.192 39.036c1.545 0 3.09 0 4.636.05.618 0-1.185-.05-.618 0h1.03c.36 0 .773.052 1.133.052.207 0 .361 0 .567.052h.31c.411 0-1.186-.052-.413-.052 1.133.052 2.318.155 3.452.206 1.803.103 3.657.154 5.46 0 .825-.051 2.164-.051 2.73-.823.155-.205-1.39-.462-1.184-.411-.927-.154-1.958-.206-2.937-.206s-1.957 0-2.936.206c-.412.051-.927.103-1.185.411l-.051.052.154-.154c-.051.05-.103.05-.154.102-.206.103.515-.154.309-.102-.31.102.721-.155.463-.103-.309.051 1.082-.103.619-.052.875-.051 1.133-.051.772-.051h.876-.258c-.566 0 1.392.051.567 0-.773-.052-1.494-.052-2.267-.103-.206 0-.412-.051-.67-.051-.772-.052.722.05.052 0-.515-.052-1.081-.052-1.597-.103-2.936-.155-5.873-.155-8.86-.206-.98 0-1.958.051-2.937.206-.103 0-1.133.102-1.185.411-.103.617 4.019.617 4.121.669M11.998 37.647c.36.36 1.391.412 1.803.463 1.134.154 2.215.206 3.349.257 1.185.052 2.318.052 3.503.052h1.8539999999999999-.412.928c1.236.051 2.42.051 3.657.154.155 0 .36 0 .515.051-.515-.051-.618-.051-.36 0 .154 0 .309 0 .463.052.464.051.98.051 1.443.103 1.442.051 2.885.051 4.276.051.978 0 1.957-.051 2.936-.206.103 0 1.133-.102 1.185-.411.103-.566-4.018-.617-4.121-.617h-2.6790000000000003c1.751 0 1.185.051.824 0h-.154c-.825-.051 1.03.051.36 0s-1.34-.103-2.009-.103l-3.452-.154c-1.339-.052-2.678-.052-4.018-.103h-1.9569999999999999c-.722 0 1.236.051.206 0-.36 0-.722 0-1.082-.051h-.412c-.567-.052 1.133.102.412 0-.258 0-.721-.103.463.051-.515-.051.516.103.31.051-.361-.102.309.258.103 0-.258-.308-1.597-.36-1.906-.36-1.03-.102-2.113-.102-3.194-.05-.825.05-1.7.05-2.473.308-.206.051-.618.102-.36.462M17.665 5.252h.515-.721 6.181c3.194 0 6.389.051 9.582.051h3.916c.824 0 1.648 0 2.473-.05h.978-.67.979c3.658-.052 7.316 0 10.973 0 .876 0 1.752.05 2.68.05h-.67.875c.979 0 1.958.052 2.988 0 1.494 0 2.988-.102 4.482-.154.464-.051.979-.051 1.443-.051h.257-.721c-1.546 0-1.082-.052-.773 0-.773-.052-1.648-.052-2.421-.309 1.545.566 3.451.463 5.048.412.825-.052 1.649-.052 2.473-.257.103-.052.876-.258.412-.463-1.494-.566-3.297-.514-4.894-.514-1.133 0-2.318.051-3.451.102-.515.052-1.082.052-1.597.103-.258 0-.567 0-.825.052h-.8240000000000001c-.721 0-1.39-.052-2.112-.052-3.71-.103-7.418-.154-11.076-.103-1.957 0-3.915 0-5.873.052h-.36.67-2.8859999999999997c-3.297 0-6.542-.052-9.84-.052-3.142 0-6.284-.051-9.427.052-.772.051-1.7.051-2.472.257-.31.103-.722.154-.412.463.36.36 1.494.308 1.906.36 1.082.051 2.112.102 3.194.051M35.902 32.608c1.906-1.8 3.709-3.702 5.667-5.45.154-.155.309-.258.463-.412.052-.051.103-.051.155-.103.412-.411-1.906-.308-1.391.052.566.36 1.133.72 1.7 1.182 1.648 1.389 3.142 2.983 4.533 4.628.206.257.98.154 1.288.154.103 0 .876-.051.721-.257-1.236-1.491-2.575-2.93-4.07-4.216-.875-.772-1.906-1.749-3.142-1.851-.515-.052-1.185-.052-1.648.257-.31.205-.567.463-.825.72l-2.782 2.622c-.875.874-1.803 1.748-2.678 2.622-.206.206.67.258.72.258.31-.052 1.031.051 1.289-.206"></path><path fill="#191919" d="M40.435 27.003c-.206 5.862-.464 11.673-.618 17.535-.051 1.028-.103 2.108-.051 3.137 0 .205 2.06.154 2.06 0-.051-2.52.155-5.04.206-7.56.103-3.547.258-7.095.412-10.695.052-.823.052-1.594.103-2.417-.051-.154-2.112-.205-2.112 0"></path><path fill="#6FA371" d="M28.947 64.334c0-4.37 0-6.582 1.391-7.918s3.606-1.337 7.985-1.337h6.234c4.43 0 6.645 0 7.985 1.337 1.39 1.337 1.39 3.548 1.39 7.918 0 4.371 0 6.582-1.39 7.92-1.391 1.336-3.607 1.336-7.985 1.336h-6.182c-4.43 0-6.646 0-7.985-1.337-1.443-1.337-1.443-3.496-1.443-7.919M71.139 73.23c4.894 0 8.86-3.959 8.86-8.844s-3.966-8.844-8.86-8.844-8.861 3.96-8.861 8.844c-.052 4.885 3.915 8.845 8.86 8.845M.201 70.917c-.772-1.954.722-4.371 3.761-9.256 2.73-4.422 4.121-6.633 6.079-6.84q.463-.075.927 0c1.958.207 3.349 2.418 6.079 6.84 3.04 4.885 4.585 7.302 3.76 9.255-.102.309-.257.566-.463.875-1.236 1.697-4.121 1.697-9.84 1.697-5.77 0-8.654 0-9.84-1.697a5 5 0 0 1-.463-.874"></path>
</svg>