<svg xmlns="http://www.w3.org/2000/svg" width="68" height="80" fill="none" viewBox="0 0 68 80"><path fill="#191919" d="M60.384 53.173c.783-.886 1.565-1.825 2.451-2.607.626-.573 1.512-1.511 2.399-1.72.156-.052.052 0 0-.052.104 0 .26.157.313.209.104.156.26.364.313.52.208.627.104 1.408 0 2.034-.313 2.085-1.2 4.066-2.086 5.943a48 48 0 0 1-3.859 6.725c-2.711 4.014-5.944 7.82-9.542 11.103-1.356 1.251-2.764 2.503-4.38 3.389-.261.156-.574.313-.835.365.104-.052-.156.052-.209.052-.104.052 0 0 .053 0 .104 0 .156-.052.208.052 0-.052-.156-.104-.156-.156-.157-.209-.209-.365-.26-.626-.262-1.512.364-3.232.833-4.64.313-.99.73-1.928 1.148-2.867.26-.625-1.773-.834-2.034-.26a47 47 0 0 0-1.147 2.867c-.522 1.46-1.095 3.18-.939 4.744.209 1.668 1.877 1.98 3.285 1.616 1.721-.417 3.285-1.668 4.641-2.763 4.067-3.389 7.665-7.507 10.69-11.834 1.669-2.398 3.18-4.952 4.432-7.61.991-2.034 1.93-4.275 2.19-6.57.105-.729.105-1.563-.26-2.24-.574-.94-1.878-1.2-2.868-1.043-1.304.156-2.399.938-3.39 1.772-1.095.99-2.086 2.085-3.076 3.232-.313.313.573.521.73.574.521.156 1.095.104 1.355-.209"></path><path fill="#191919" d="M53.708 74.181c-1.981-1.407-4.171-2.502-6.31-3.597-2.346-1.199-4.692-2.293-7.195-3.127-4.798-1.617-9.856-2.555-14.445-4.744-2.242-1.043-4.015-2.503-5.266-4.64-1.565-2.606-2.399-5.578-2.764-8.602-.47-3.544-.417-7.193-.26-10.738.104-2.92.364-5.839.52-8.758.105-1.251.053-2.763 1.096-3.701.209-.157.417-.261.626-.418h.052c-.99-.104-1.252-.104-.835.053.105.104.261.156.418.312.417.47.625 1.147.782 1.72.573 2.45.573 5.11.521 7.612 0 .26 2.086.26 2.086 0 .052-2.346 0-4.744-.417-7.038-.157-1.042-.47-2.398-1.564-2.815-.991-.365-2.66-.365-3.546.365-.991.834-1.148 2.137-1.252 3.336-.052 1.2-.156 2.398-.26 3.597-.261 3.702-.418 7.455-.418 11.156.053 3.44.365 6.934 1.513 10.218.886 2.606 2.294 5.213 4.536 6.881 1.93 1.46 4.328 2.294 6.57 3.076 2.608.886 5.32 1.616 7.979 2.398 2.816.834 5.475 1.876 8.134 3.127 2.608 1.252 5.32 2.607 7.718 4.275.313.209.938.156 1.303.104.053.157.835.052.678-.052"></path><path fill="#191919" d="M20.387 44.624c1.356-2.503 2.66-5.005 3.963-7.507 1.2-2.346 2.347-4.744 3.598-7.09.73-1.355 1.564-2.971 2.816-3.91.417-.312 1.095-.364 0-.364-1.043 0-.574-.053-.26.156.156.104.312.26.416.417.418.625.47 1.407.418 2.137-.157 2.92-1.878 5.63-3.233 8.133l-2.503 4.691c-.47.886-1.043 1.773-1.356 2.763 0 0 1.981.365 2.086 0 .26-.886.782-1.72 1.199-2.502.782-1.46 1.564-2.92 2.294-4.379 1.408-2.71 3.39-5.63 3.546-8.758.052-.73-.052-1.616-.573-2.19-.522-.625-1.304-.677-2.086-.677s-1.512.052-2.138.521a17 17 0 0 0-1.304 1.668c-1.668 2.346-2.763 5.11-4.067 7.664l-4.85 9.227c-.052.052.991.156 1.043.156.157 0 .887.052.991-.156"></path><path fill="#191919" d="M24.35 48.064c.366-.73.574-1.564.94-2.293.573-1.095 1.407-2.086 2.554-2.66 1.721-.885 3.807-.729 5.684-.729 2.19-.052 4.328-.052 6.518-.052 1.356 0 2.503.052 3.807.209 1.043.104 2.92.208 2.66 1.72-.261 1.46-2.139 1.877-3.338 2.033-1.251.156-2.503.156-3.754.208-1.825.053-3.65.105-5.423.209-1.356.052-2.816.104-4.12.417-.26.052-.678.156-.365.47.26.26 1.095.208 1.408.103 1.095-.26 2.503-.312 3.807-.364 1.668-.105 3.337-.157 5.005-.21 1.565-.051 3.13-.051 4.694-.312 1.407-.208 3.441-.678 4.067-2.137.73-1.668-.99-2.398-2.347-2.659-1.46-.26-2.92-.365-4.38-.417a134 134 0 0 0-6.466 0c-1.303 0-2.607.052-3.963.104-1.147.053-2.294.053-3.39.365-1.668.417-3.128 1.356-4.119 2.815-.626.939-.938 1.981-1.408 2.972-.313.469 1.721.677 1.93.208"></path><path fill="#191919" d="M28.054 50.045c.99-1.095 1.929-2.241 3.546-2.346 1.46-.052 2.92.522 4.275 1.043 1.356.573 2.764 1.095 4.12 1.772 1.2.574 2.294 1.252 3.18 2.242.418.521.679 1.147.21 1.72-.626.834-1.826.626-2.712.47-1.721-.365-3.39-.887-5.006-1.46-.99-.365-2.034-.73-3.129-.73-.208 0-1.043 0-1.043.365s.835.417 1.043.365c.26 0-.156-.052.105 0 .26.052.364.104.573.156.574.209 1.147.417 1.72.574 1.826.625 3.651 1.199 5.58 1.46 1.408.208 3.181.208 4.433-.626.73-.522 1.043-1.304.625-2.085-.677-1.252-2.294-2.19-3.493-2.816-1.46-.73-3.025-1.355-4.537-1.98-1.773-.73-3.598-1.304-5.58-1.304-1.355 0-2.763.26-3.91.99-.782.522-1.304 1.2-1.93 1.877-.26.313.574.47.73.47.261.156.887.208 1.2-.157M35.51 41.392c-.73-.835-1.355-1.72-1.929-2.607a82 82 0 0 1-1.825-2.71c-.104-.21-.26-.366-.365-.574-.26-.365-.886-.417-1.304-.313-.208.052-.99.209-.73.573a90 90 0 0 0 3.129 4.64c.313.47.678.886 1.043 1.303.313.365.834.417 1.303.313.105-.104.991-.313.678-.625M32.33 28.411c-.312-.052-.103 0 0 0 .053.104.157.156.21.209.208.156.364.364.52.573.47.573.887 1.147 1.252 1.772.939 1.356 1.825 2.816 2.816 4.17 1.669 2.347 3.546 4.588 5.215 6.934.156.209.782.157 1.042.157.053 0 1.096-.105 1.043-.157a113 113 0 0 0-4.223-5.63c-1.669-2.033-2.973-4.379-4.537-6.516-.47-.626-1.043-1.616-1.877-1.772a3.45 3.45 0 0 0-1.46 0c-.365.104-.417.208 0 .26M46.983 44.78c1.564.313 2.868 1.668 3.963 2.71 1.252 1.252 2.399 2.607 3.65 3.858.887.939 2.034 1.617 3.129 2.242 1.356.782 2.764 1.512 4.172 2.242.834.417 1.668.834 2.555 1.25.417.21 1.043.21 1.46 0 .365-.208.417-.52 0-.677a88 88 0 0 1-6.258-3.18c-1.095-.625-2.242-1.303-3.18-2.242-1.2-1.25-2.347-2.606-3.599-3.805-1.355-1.303-2.972-2.815-4.85-3.232-.416-.104-1.094-.156-1.407.156-.365.313 0 .626.365.678"></path><path fill="#91D794" d="M35.98 10.061c-2.086-.99-4.016-2.763-4.798-4.9a14.9 14.9 0 0 1-.886-5.005c0-.208-.991-.208-1.043 0-.574 3.962-3.546 8.08-7.51 9.227-.103.053-.155.053-.103.105-.053.052 0 .052.104.104.886.26 1.877.834 2.711 1.407 1.148.835 1.773 1.93 2.086 3.285.47 1.824.522 3.753.47 5.63 0 .208.99.208 1.042 0 .678-2.138 1.46-4.327 2.451-6.36.626-1.356 1.617-2.346 3.025-2.867.469-.157.99-.313 1.512-.365.26-.052.365-.052.574-.052 0 0 .625-.105.364-.209"></path><path fill="#191919" d="M5.318 15.9c.052 3.44-.105 6.933-.574 10.322 0 .104 2.034.26 2.086 0 .47-3.389.626-6.881.574-10.322 0-.209-2.086-.209-2.086 0"></path><path fill="#191919" d="M.99 17.933c.314.104.627.365.887.573.574.418 1.147.834 1.721 1.304a82 82 0 0 1 3.963 3.232c.47.417.99.886 1.408 1.355.156.209.834.104 1.043.104.26 0 .47 0 .73-.052.052 0 .313-.052.313-.104-.835-1.043-1.982-1.929-3.025-2.763-1.303-1.043-2.607-2.085-3.91-3.076-.313-.26-.73-.625-1.096-.73-.417-.052-.886 0-1.303 0-.209 0-.417 0-.626.053-.052 0-.26.052-.104.104"></path><path fill="#191919" d="M10.377 17.62c-.209.157-.052.052 0 0-.104.052-.157.104-.26.157-.262.156-.522.313-.73.469-.73.417-1.513.886-2.295 1.251-1.669.886-3.39 1.825-5.11 2.607-.157.104-.365.156-.522.26-.052 0-.313.156-.104.052-.052 0-.105.052-.209.052-.104.052-.208.105-.365.105-.208 0-.052.052 0 0 .104 0 .157-.053.26-.053-.364 0-1.042.157-1.042.574 0 .47.73.573 1.043.573.626.052 1.251-.312 1.825-.573.782-.365 1.564-.73 2.347-1.147a104 104 0 0 0 5.318-2.867c.522-.313 1.148-.626 1.617-1.043.365-.312-.052-.677-.365-.782-.417 0-1.043 0-1.408.365M47.505 22.885a1.147 1.147 0 1 0 0-2.294 1.147 1.147 0 0 0 0 2.294"></path><path fill="#191919" d="M47.609 21.739c0 .26-.104.469-.209.677 0 0 0-.052.053-.052l-.313.313-.105.052c.053-.052.053 0 0 0h-.052c-.104.052.157-.052.052 0h.9390000000000001c.156 0 .209.052.104 0-.104 0 .157.052.052 0h-.052q-.078 0 0 0l-.104-.052c-.104-.052-.26-.156-.313-.313 0 0 0 .052.052.052a1.096 1.096 0 0 1 0-1.355s0 .052-.052.052l.313-.313.104-.052c-.052 0-.052.052 0 0h.052c.105-.052-.156.052-.052 0h-.938c-.157 0-.209-.052-.105 0 .105 0-.156-.052-.052 0h.052q.08 0 0 0l.105.052c.104.052.26.157.313.313 0 0 0-.052-.053-.052.105.156.209.417.209.678 0 .104.26.104.313.156.26.052.521.052.73.052.26 0 .521 0 .73-.052.052 0 .313-.052.313-.156 0-.574-.417-1.043-.939-1.2-.365-.104-.678-.104-1.043-.156-.365 0-.782 0-1.147.105a2 2 0 0 0-.886.417c-.365.417-.47.99-.157 1.46.157.26.417.416.678.52.209.105.47.105.678.157q.705.078 1.408 0c.365-.052.782-.156 1.043-.47.208-.208.313-.52.365-.833 0-.105-.261-.157-.313-.157-.26-.052-.522-.052-.73-.052-.26 0-.522 0-.73.052-.104 0-.313.052-.313.157M59.133 53.695s5.736 3.961 6.466 2.085c.73-1.877 2.242-6.673.834-7.038s-2.45-.47-4.12 1.2c-1.668 1.72-3.18 3.752-3.18 3.752M52.093 74.807s-5.32 5.787-7.3 4.796c-1.982-.99.625-7.924.625-7.924s.313-1.564 3.233.105c2.868 1.668 3.441 3.023 3.441 3.023"></path></svg>